<svg width="20" height="20" viewBox="0 0 20 20" fill="none" xmlns="http://www.w3.org/2000/svg">
<circle cx="10" cy="10" r="10" transform="rotate(-180 10 10)" fill="#78CDE1"/>
<path d="M11.1302 6.35281C11.2074 6.35281 11.2845 6.38125 11.3455 6.44218C11.4633 6.56 11.4633 6.755 11.3455 6.87281L8.69673 9.52156C8.50173 9.71656 8.50173 10.0334 8.69673 10.2284L11.3455 12.8772C11.4633 12.995 11.4633 13.19 11.3455 13.3078C11.2277 13.4256 11.0327 13.4256 10.9149 13.3078L8.2661 10.6591C8.05892 10.4519 7.9411 10.1716 7.9411 9.875C7.9411 9.57843 8.05485 9.29812 8.2661 9.09093L10.9149 6.44218C10.9758 6.38531 11.053 6.35281 11.1302 6.35281Z" fill="white"/>
</svg>
