<svg width="20" height="20" viewBox="0 0 20 20" fill="none" xmlns="http://www.w3.org/2000/svg">
<circle cx="10" cy="10.0001" r="10" fill="#78CDE1"/>
<path d="M8.86983 13.6473C8.79265 13.6473 8.71546 13.6188 8.65452 13.5579C8.53671 13.4401 8.53671 13.2451 8.65452 13.1273L11.3033 10.4785C11.4983 10.2835 11.4983 9.96666 11.3033 9.77166L8.65452 7.12291C8.53671 7.00509 8.53671 6.81009 8.65452 6.69228C8.77233 6.57447 8.96733 6.57447 9.08515 6.69228L11.7339 9.34103C11.9411 9.54822 12.0589 9.82853 12.0589 10.1251C12.0589 10.4217 11.9451 10.702 11.7339 10.9092L9.08515 13.5579C9.02421 13.6148 8.94702 13.6473 8.86983 13.6473Z" fill="white"/>
</svg>
