<svg width="11" height="8" viewBox="0 0 11 8" fill="none" xmlns="http://www.w3.org/2000/svg">
<path d="M6.31543 7.37387C6.2127 7.37387 6.10996 7.33603 6.02886 7.25492C5.87205 7.09811 5.87205 6.83858 6.02886 6.68177L9.02437 3.68626L6.02886 0.690752C5.87205 0.533947 5.87205 0.274408 6.02886 0.117603C6.18566 -0.0392012 6.4452 -0.0392012 6.60201 0.117603L9.88409 3.39969C10.0409 3.55649 10.0409 3.81603 9.88409 3.97284L6.60201 7.25492C6.5209 7.33603 6.41817 7.37387 6.31543 7.37387Z" fill="white"/>
<path d="M9.50561 4.09182H0.405529C0.18384 4.09182 0 3.90798 0 3.68629C0 3.4646 0.18384 3.28076 0.405529 3.28076H9.50561C9.7273 3.28076 9.91114 3.4646 9.91114 3.68629C9.91114 3.90798 9.7273 4.09182 9.50561 4.09182Z" fill="white"/>
</svg>
