<svg width="17" height="19" viewBox="0 0 17 19" fill="none" xmlns="http://www.w3.org/2000/svg">
<path d="M14.0074 0.944046H3.59616C2.15594 0.944046 0.993347 2.09796 0.993347 3.52083V12.9864C0.993347 14.4093 2.15594 15.5718 3.59616 15.5718H4.25554C4.94094 15.5718 5.609 15.8408 6.09486 16.3267L7.57846 17.7929C8.25519 18.461 9.34837 18.461 10.0251 17.7929L11.5087 16.3267C11.9946 15.8408 12.6626 15.5718 13.348 15.5718H14.0074C15.4476 15.5718 16.6102 14.4093 16.6102 12.9864V3.52083C16.6102 2.09796 15.4476 0.944046 14.0074 0.944046ZM8.80178 4.02404C9.73879 4.02404 10.4936 4.78753 10.4936 5.71587C10.4936 6.63553 9.76482 7.37299 8.86251 7.40769C8.82781 7.40769 8.77575 7.40769 8.73237 7.40769C7.82139 7.37299 7.10128 6.63553 7.10128 5.71587C7.10995 4.78753 7.86477 4.02404 8.80178 4.02404ZM11.1877 11.9539C9.87761 12.8302 7.72595 12.8302 6.41587 11.9539C5.26196 11.1904 5.26196 9.92374 6.41587 9.15158C7.73463 8.2753 9.88628 8.2753 11.1877 9.15158C12.3416 9.92374 12.3416 11.1818 11.1877 11.9539Z" fill="white"/>
</svg>
