<svg width="25" height="25" viewBox="0 0 25 25" fill="none" xmlns="http://www.w3.org/2000/svg">
<path d="M18.3127 8.22505C18.2404 8.21472 18.168 8.21472 18.0957 8.22505C16.4936 8.17337 15.2224 6.86073 15.2224 5.24836C15.2224 3.60498 16.5557 2.26134 18.2094 2.26134C19.8528 2.26134 21.1964 3.59465 21.1964 5.24836C21.1861 6.86073 19.9148 8.17337 18.3127 8.22505Z" fill="white"/>
<path d="M21.6823 15.3877C20.5247 16.1629 18.902 16.4523 17.4033 16.2559C17.7961 15.4084 18.0028 14.4679 18.0131 13.4756C18.0131 12.442 17.7857 11.4602 17.3516 10.6023C18.8813 10.3956 20.504 10.685 21.672 11.4602C23.305 12.5351 23.305 14.3025 21.6823 15.3877Z" fill="white"/>
<path d="M6.85044 8.22505C6.92279 8.21472 6.99514 8.21472 7.06749 8.22505C8.66953 8.17337 9.94083 6.86073 9.94083 5.24836C9.94083 3.59465 8.60752 2.26134 6.9538 2.26134C5.31042 2.26134 3.97711 3.59465 3.97711 5.24836C3.97711 6.86073 5.24841 8.17337 6.85044 8.22505Z" fill="white"/>
<path d="M6.96415 13.4756C6.96415 14.4782 7.1812 15.4291 7.57396 16.287C6.11662 16.442 4.59727 16.1319 3.48101 15.3981C1.84796 14.3128 1.84796 12.5454 3.48101 11.4602C4.58693 10.716 6.14763 10.4163 7.6153 10.5816C7.19153 11.4498 6.96415 12.4317 6.96415 13.4756Z" fill="white"/>
<path d="M12.7212 16.597C12.6385 16.5867 12.5455 16.5867 12.4524 16.597C10.5507 16.535 9.03131 14.9743 9.03131 13.0519C9.04165 11.0881 10.623 9.49637 12.5971 9.49637C14.5609 9.49637 16.1526 11.0881 16.1526 13.0519C16.1423 14.9743 14.6333 16.535 12.7212 16.597Z" fill="white"/>
<path d="M9.36199 18.7365C7.80129 19.7805 7.80129 21.4962 9.36199 22.5298C11.1397 23.7184 14.0544 23.7184 15.8322 22.5298C17.3928 21.4859 17.3928 19.7701 15.8322 18.7365C14.0647 17.5479 11.1501 17.5479 9.36199 18.7365Z" fill="white"/>
</svg>
