<svg fill="none" height="278" viewBox="0 0 350 278" width="350" xmlns="http://www.w3.org/2000/svg" xmlns:xlink="http://www.w3.org/1999/xlink"><filter id="a" color-interpolation-filters="sRGB" filterUnits="userSpaceOnUse" height="276.48" width="349.623" x=".188572" y=".748607"><feFlood flood-opacity="0" result="BackgroundImageFix"/><feColorMatrix in="SourceAlpha" result="hardAlpha" type="matrix" values="0 0 0 0 0 0 0 0 0 0 0 0 0 0 0 0 0 0 127 0"/><feOffset dy="11.7029"/><feGaussianBlur stdDeviation="23.4057"/><feComposite in2="hardAlpha" operator="out"/><feColorMatrix type="matrix" values="0 0 0 0 0.478431 0 0 0 0 0.796078 0 0 0 0 0.878431 0 0 0 0.62 0"/><feBlend in2="BackgroundImageFix" mode="normal" result="effect1_dropShadow_2_2609"/><feBlend in="SourceGraphic" in2="effect1_dropShadow_2_2609" mode="normal" result="shape"/></filter><linearGradient id="b" gradientUnits="userSpaceOnUse" x1="47" x2="213.916" y1="112.657" y2="121.874"><stop offset="0" stop-color="#aee9f7"/><stop offset="1" stop-color="#6fc4db"/></linearGradient><g filter="url(#a)"><rect fill="url(#b)" height="182.857" rx="14.6286" width="256" x="47" y="35.8572"/></g><g fill="#fff"><path d="m187.703 88.4906v-3.9318c0-1.0333-.857-1.8902-1.89-1.8902-1.034 0-1.891.8569-1.891 1.8902v3.7806h-16.382v-3.7806c0-1.0333-.857-1.8902-1.89-1.8902s-1.89.8569-1.89 1.8902v3.9318c-6.805.6301-10.107 4.6878-10.611 10.7114-.05.7309.554 1.336 1.26 1.336h42.644c.731 0 1.336-.6303 1.261-1.336-.505-6.0236-3.806-10.0813-10.611-10.7114z"/><path d="m195.894 104.318h-40.326c-1.386 0-2.52 1.135-2.52 2.521v15.525c0 7.561 3.781 12.602 12.602 12.602h20.163c8.821 0 12.601-5.041 12.601-12.602v-15.525c0-1.386-1.134-2.521-2.52-2.521zm-27.195 21.096c-.126.1-.252.226-.378.302-.151.101-.302.177-.453.227-.152.076-.303.126-.454.151-.176.025-.328.051-.504.051-.328 0-.655-.076-.958-.202-.327-.126-.579-.303-.831-.529-.454-.479-.731-1.135-.731-1.79s.277-1.31.731-1.789c.252-.227.504-.404.831-.53.454-.201.958-.252 1.462-.151.151.025.302.076.454.151.151.051.302.126.453.227l.378.303c.454.479.731 1.134.731 1.789s-.277 1.311-.731 1.79zm0-8.822c-.478.454-1.134.731-1.789.731s-1.311-.277-1.789-.731c-.454-.478-.731-1.134-.731-1.789s.277-1.311.731-1.789c.705-.706 1.814-.933 2.747-.53.327.126.605.303.831.53.454.478.731 1.134.731 1.789s-.277 1.311-.731 1.789zm8.822 8.822c-.479.453-1.135.731-1.79.731s-1.31-.278-1.789-.731c-.454-.479-.731-1.135-.731-1.79s.277-1.31.731-1.789c.932-.933 2.646-.933 3.579 0 .453.479.731 1.134.731 1.789s-.278 1.311-.731 1.79zm0-8.822c-.126.101-.252.202-.378.303-.152.101-.303.176-.454.227-.151.075-.303.126-.454.151-.176.025-.327.05-.504.05-.655 0-1.31-.277-1.789-.731-.454-.478-.731-1.134-.731-1.789s.277-1.311.731-1.789c.227-.227.504-.404.831-.53.933-.403 2.042-.176 2.748.53.453.478.731 1.134.731 1.789s-.278 1.311-.731 1.789zm8.821 8.822c-.479.453-1.134.731-1.79.731-.655 0-1.31-.278-1.789-.731-.454-.479-.731-1.135-.731-1.79s.277-1.31.731-1.789c.932-.933 2.646-.933 3.579 0 .454.479.731 1.134.731 1.789s-.277 1.311-.731 1.79zm0-8.822c-.126.101-.252.202-.378.303-.151.101-.303.176-.454.227-.151.075-.302.126-.454.151-.176.025-.352.05-.504.05-.655 0-1.31-.277-1.789-.731-.454-.478-.731-1.134-.731-1.789s.277-1.311.731-1.789c.252-.227.504-.404.832-.53.453-.201.957-.252 1.461-.151.152.025.303.076.454.151.151.051.303.126.454.227l.378.303c.454.478.731 1.134.731 1.789s-.277 1.311-.731 1.789z"/><path d="m136.269 151.073v16.266h-2.668v-16.266zm10.01 3.159c1.015 0 1.92.211 2.715.632.812.422 1.444 1.046 1.896 1.873.453.827.679 1.825.679 2.996v7.606h-2.645v-7.208c0-1.155-.288-2.037-.866-2.645-.577-.624-1.365-.937-2.364-.937-.998 0-1.794.313-2.387.937-.578.608-.866 1.49-.866 2.645v7.208h-2.668v-12.896h2.668v1.474c.437-.53.991-.944 1.662-1.24.686-.296 1.412-.445 2.176-.445zm13.679 10.72 3.651-10.509h2.832l-4.915 12.896h-3.183l-4.892-12.896h2.856zm14.094 2.598c-1.217 0-2.317-.273-3.3-.819-.983-.562-1.755-1.342-2.317-2.341-.562-1.014-.843-2.184-.843-3.511 0-1.31.289-2.473.866-3.487.578-1.014 1.366-1.794 2.364-2.341.999-.546 2.115-.819 3.347-.819 1.233 0 2.349.273 3.347.819.999.547 1.787 1.327 2.364 2.341.578 1.014.866 2.177.866 3.487 0 1.311-.296 2.474-.889 3.488s-1.404 1.802-2.434 2.364c-1.015.546-2.138.819-3.371.819zm0-2.317c.687 0 1.327-.164 1.92-.492.608-.327 1.1-.819 1.474-1.474.375-.655.562-1.451.562-2.388 0-.936-.18-1.724-.539-2.363-.358-.656-.834-1.147-1.427-1.475s-1.233-.492-1.92-.492c-.686 0-1.326.164-1.919.492-.577.328-1.037.819-1.381 1.475-.343.639-.515 1.427-.515 2.363 0 1.389.351 2.466 1.054 3.23.717.749 1.615 1.124 2.691 1.124zm10.69-12.499c-.484 0-.89-.164-1.218-.491-.327-.328-.491-.734-.491-1.217 0-.484.164-.89.491-1.217.328-.328.734-.492 1.218-.492.468 0 .866.164 1.193.492.328.327.492.733.492 1.217 0 .483-.164.889-.492 1.217-.327.327-.725.491-1.193.491zm1.31 1.709v12.896h-2.668v-12.896zm2.614 6.436c0-1.326.265-2.488.796-3.487.546-1.014 1.295-1.794 2.247-2.341.952-.546 2.044-.819 3.277-.819 1.56 0 2.847.375 3.861 1.124 1.03.733 1.725 1.786 2.084 3.16h-2.879c-.234-.64-.609-1.14-1.124-1.498-.515-.359-1.162-.539-1.942-.539-1.093 0-1.967.39-2.622 1.171-.64.764-.96 1.841-.96 3.229 0 1.389.32 2.474.96 3.254.655.78 1.529 1.17 2.622 1.17 1.544 0 2.566-.679 3.066-2.036h2.879c-.375 1.311-1.077 2.356-2.107 3.136-1.03.765-2.309 1.147-3.838 1.147-1.233 0-2.325-.273-3.277-.819-.952-.562-1.701-1.342-2.247-2.341-.531-1.014-.796-2.184-.796-3.511zm26.744-.304c0 .484-.032.921-.094 1.311h-9.854c.078 1.03.46 1.857 1.147 2.481s1.529.936 2.528.936c1.435 0 2.45-.601 3.043-1.802h2.879c-.391 1.186-1.101 2.161-2.13 2.926-1.015.749-2.279 1.123-3.792 1.123-1.233 0-2.341-.273-3.324-.819-.967-.562-1.732-1.342-2.294-2.341-.546-1.014-.819-2.184-.819-3.511 0-1.326.266-2.488.796-3.487.546-1.014 1.303-1.794 2.27-2.341.983-.546 2.107-.819 3.371-.819 1.217 0 2.301.266 3.253.796.952.531 1.693 1.28 2.224 2.247.53.952.796 2.052.796 3.3zm-2.786-.842c-.015-.983-.366-1.771-1.053-2.364s-1.537-.89-2.551-.89c-.921 0-1.709.297-2.364.89-.656.577-1.046 1.365-1.17 2.364z"/></g></svg>