<svg fill="none" height="339" viewBox="0 0 428 339" width="428" xmlns="http://www.w3.org/2000/svg"><path d="m0 0h428v309c0 16.569-13.431 30-30 30h-368c-16.5685 0-30-13.431-30-30z" fill="#77cce0" fill-opacity=".24"/><path d="m110.339 299.903s-33.0546-.876-47.1787-23.213c-25.5872-40.463-14.0558-75.947 31.4986-73.306 50.9611 2.955 44.6761-122.4781 132.9151-62.087 19.161 13.114 61.805-14.427 78.842 42.952 4.051 13.645 34.475 14.594 54.139 25.536 30.843 17.163 22.133 90.405-7.005 90.693-29.137.288-243.211-.575-243.211-.575z" fill="#b9efff" fill-opacity=".35"/><path d="m79.8735 212.479c1.4739.34 8.1345.421 12.8113-.63.9748-.218 1.8655-.485 2.6025-.811.8809-.388 1.5446-.858 1.8838-1.423.5283-.881 1.4959-3.896 2.6331-7.848 3.1318-10.889 7.5388-28.882 7.5388-28.882s-8.8493 1.806-10.7221 3.348c-1.8741 1.542-3.5262 26.001-5.288 26.662-.2599.097-.7077.302-1.2812.584-.028.014-.0561.028-.0842.042-.3416.168-.7272.363-1.1432.578-3.6543 1.878-9.7012 5.26-10.3271 6.013-.826.991-.7723 1.872 1.3763 2.367z" fill="#739af0"/><path d="m96.8551 186.809c0-.416.0415-.834.1172-1.251 1.1383-6.262 10.1927-12.674 10.3727-12.674l.001.13c0 .957 1.509 2.723 3.832 2.876 2.756.18 6.159-1.392 6.159-2.981.017 0 1.549.208 2.068.265 2.21.251 6.62 1.445 8.508 2.872 1.796 1.357-.742 9.912-2.313 15.971-.666 2.564-1.157 4.68-1.076 5.617.04.457.451 6.676.817 12.302.304 4.641.579 8.877.587 9.143.02.527-2.601 2.373-7.002 3.767-1.063.337-2.232.648-3.491.906-2.26.464-4.814.763-7.594.754-.909-.004-1.77-.05-2.583-.131-6.286-.616-8.4395-7.781-8.4029-37.566z" fill="#739af0"/><path d="m117.335 172.836c.054-2.432.013-5.336-.316-7.789l-9.707 1.586s-.01 2.964.031 6.251c-.006.001-.263 3.049 3.492 3.495 3.757.446 6.601-1.191 6.5-3.543z" fill="#d9935c"/><path d="m109.214 301.374c1.22-.751.504-6.319.504-6.319s-5.718-4.538-6.488-1.044c-.771 3.494-5.3951 5.079-8.0306 5.516-1.8192.302-2.4902 1.242-2.6623 1.84z" fill="#233862"/><path d="m118.106 205.649c0 9.309 4.512 6.801 7.235 4.286-.367-5.626-.624-25.552-.624-25.552s-6.611 7.935-6.611 21.266z" fill="#4a75cb"/><path d="m88.8243 204.099c.1806 1.306 2.2426 5.106 3.8605 7.752.9748-.219 1.8655-.486 2.6025-.812.8809-.388 1.5447-.858 1.8839-1.423.5283-.88 1.4958-3.895 2.633-7.847-.8419-4.866-1.6411-9.67-1.6411-9.67l-.2477-3.222c0 .248-3.7726 14.406-5.482 14.736-1.0298.201-1.7606-.042-2.3817-.131-.028.013-.0561.028-.0841.041-.3417.166-.726.361-1.1433.576z" fill="#4a75cb"/><path d="m126.732 301.374c1.22-.751.504-6.319.504-6.319s-5.717-4.538-6.487-1.044c-.771 3.494-5.396 5.079-8.031 5.516-1.819.302-2.479 1.242-2.651 1.84z" fill="#233862"/><path d="m118.26 162.247s6.48-10.218-5.963-10.894c0 0-4.667.549-5.724-.507 0 0-3.62 5.502-.239 11.401 3.38 5.899 11.926 0 11.926 0z" fill="#233862"/><path d="m107.6 167.578c.943.742 3.709 1.479 4.508 1.566 0 0 4.101-.915 4.846-1.364 1.154-.701 1.08-2.117 1.14-4.086.071-2.332.306-4.162.045-5.507-.309-1.608-1.329-2.522-4.183-2.771-5.239-.455-7.42.857-7.512 2.614-.023.472-.045.921-.061 1.347-.209 5.478.225 7.421 1.217 8.201z" fill="#d9935c"/><path d="m106.337 161.173c.05 3.173.906 5.051 1.526 5.289.714.273 1.554.499 2.431.649.295.034.578.025.574-.143-.01-.5-.678-1.117-.182-1.56.521-.465 3.319-.621 3.545.393.11.494-.792 1.367-.175 1.387.188-.032.373-.068.548-.113 1.019-.266 1.818-.748 2.156-.951 1.154-.7 1.079-1.773 1.335-3.726.166-1.264.166-.579 0 1.297-.173 1.963.166 3.222-1.14 4.086-.726.481-4.907 2.36-4.907 2.36.061-.995-3.504-1.818-4.447-2.56-.876-.691-1.317-2.283-1.264-6.408z" fill="#233862"/><path d="m125.927 219.079c.019.527-2.601 2.373-7.002 3.767-.354.114-.721.222-1.1.327-.005.001-.008.006-.008.011-.41 4.817-1.522 11.622-2.525 18.189v.001c-.26 1.702-.511 3.388-.741 5.019-.612 4.317-1.069 8.25-1.119 11.081v.03c-.022 1.299 1.073 4.54 1.156 5.288.052.457.093.942.122 1.449.12 2.028.071 4.424-.092 6.983-.719 11.165-3.669 25.451-4.722 26.059-2.093 1.21-5.901-.001-7.836-.284-.801-.119-1.442-.802-1.402-1.609.946-18.53-1.7701-44.336-3.7992-60.2-.0525-.413-.1062-.818-.1574-1.216-.2428-1.871-.4039-3.618-.5039-5.193-.0927-1.381-.1367-2.636-.1574-3.724-.0049-.339-.0085-.662-.0098-.969-.0048-.993.7846-7.495.8212-37.28.0012-.689.5637-1.251 1.2518-1.251h18.2157c1.76 0 3.175 1.441 3.154 3.2-.029 2.272.053 5.444.546 8.473.672 4.136 2.112 7.999 5.083 8.929.004.001.006.002.007.006.014.03.096.211.225.512 0 .001.001.004.001.005.028.748.06 1.509.094 2.285.006.155.014.313.022.47.004.093.009.183.014.276.006.157.014.316.023.474.011.262.024.524.039.79.011.209.023.416.034.626.022.404.046.811.073 1.222.006.132.015.263.025.397.034.532.07 1.072.112 1.617.011.167.024.334.038.502.004.081.011.163.018.243.016.214.033.426.051.642.018.227.038.454.057.684.079.836-.029 1.582-.008 2.169z" fill="#2b478b"/><path d="m114.619 271.224c-.719 11.165-3.669 25.451-4.722 26.059-2.093 1.21-5.901-.001-7.836-.284-.801-.119-1.442-.802-1.402-1.609.946-18.53-1.7699-44.336-3.799-60.2-.0525-.413-.1061-.818-.1574-1.216-.2428-1.871-.4039-3.618-.5039-5.193.9651-6.29 6.4113-6.627 11.3523 6.385-.61 4.315 7.231 33.499 7.068 36.058z" fill="#233862"/><path d="m126.132 256.949c.15 1.291 1.661 4.359 1.841 5.09 2.498 10.043 1.118 33.857-.121 34.809-1.915 1.474-5.849.773-7.805.746-.81-.01-1.535-.605-1.601-1.41-1.536-18.974-7.899-45.033-11.99-60.364-2.061-7.722-2.352-13.4-2.352-13.4s19.124-11.716 21.192-5.316c1.832 5.664-.318 29.934.836 39.845z" fill="#2b478b"/><path d="m106.654 148.496c.132-.149.272-.292.42-.432.623-.593 1.375-1.104 2.278-1.481 3.334-1.391 6.099-.108 7.828 1.208.171.128.331.258.479.386.94.798 1.465 1.511 1.465 1.511s1.619 2.209 1.565 6.867l-16.682.178s-.245-5.03 2.647-8.237z" fill="#ffa412"/><path d="m116.007 156.603-.916.01c-.019-.266.026-6.32 2.284-8.67.171.128.136.106.284.234-2.145 2.071-1.655 8.363-1.652 8.426z" fill="#e27f2b"/><path d="m108.759 156.683c-.191-3.707-1.611-7.602-1.994-8.295.132-.152.16-.18.307-.324.266.457 2.442 4.491 2.671 8.608l10.945-.117s-5.546 1.243-8.892 1.284c-3.347.042-7.79-1.106-7.79-1.106z" fill="#e27f2b"/><path d="m120.061 173.263s-5.636 6.565-5.967 12.295l2.871.153s.724-6.382 4.965-12.055c0 0-.664-.161-.885-.205-.295-.059-.984-.188-.984-.188z" fill="#2b478b"/><path d="m106.008 173.173c-4.037 6.11-4.47 12.508-4.47 12.508l-2.8978-.05c.2379-4.503 3.0678-9.457 4.6288-11.803-.001 0 2.005-.506 2.739-.655z" fill="#2b478b"/><path d="m112.302 236.183h2.328c1.082-.491 6.909-3.015 12.511-3.046 4.042-.022 8.647 2.998 8.924 3.029.703.083-2.341.11-2.341.11s-4.561-2.018-6.611-2.066c-1.954-.045-6.29 1.376-8.022 1.972h13.044c1.091 0 1.983.892 1.983 1.983v14.873c0 1.091-.892 1.983-1.983 1.983h-19.833c-1.091 0-1.983-.892-1.983-1.983v-14.873c0-1.088.892-1.982 1.983-1.982z" fill="#ffa412"/><path d="m118.747 236.183h19.831c1.091 0 1.983.892 1.983 1.983v14.873c0 1.091-.892 1.983-1.983 1.983h-19.831c-1.091 0-1.983-.892-1.983-1.983v-14.873c0-1.089.892-1.983 1.983-1.983z" fill="#e27f2b"/><path d="m124.571 208.51c-.141 6.723.696 20.111.696 20.111h3.966c1.873-9.42 2.533-15.481 2.533-18.785 0-.651-.003-1.258-.008-1.818-.025-2.822-.101-4.462-.101-4.462.744-17.104-2.672-26.248-3.745-27.509-1.074-1.259-5.982-2.391-5.982-2.391s-1.622 4.725-2.283 8.526 5.199 19.772 4.959 25.231c-.015.339-.026.706-.035 1.097z" fill="#739af0"/><path d="m73.0921 213.085h3.2077c.3172 0 .5783.263.5783.581v87.347c0 .319-.2611.58-.5783.58h-3.2077c-.3185 0-.5784-.261-.5784-.58v-87.346c0-.319.2587-.582.5784-.582z" fill="#f1a34f"/><path d="m73.0921 213.085h3.2077c.3172 0 .5783.263.5783.581v2.706h-4.3644v-2.706c0-.318.2587-.581.5784-.581z" fill="#2b478b"/><path d="m76.8781 301.013c0 .319-.2611.58-.5783.58h-3.2077c-.3185 0-.5784-.261-.5784-.58v-2.334h4.3644z" fill="#2b478b"/><path d="m74.6685 218.81c.1817 0 .3306.149.3306.331v76.883c0 .182-.1489.331-.3306.331-.1818 0-.3307-.149-.3307-.331v-76.884c0-.182.1489-.33.3307-.33z" fill="#e27f2b"/><path d="m125.267 228.621s-.838-13.388-.696-20.111c3.171-1.023 5.73-.798 7.188-.493.005.56.009 1.166.009 1.818 0 3.305-.662 9.366-2.533 18.785.826 3.47.771 7.217-.662 7.877-1.432.661-6.17-1.818-6.115-2.92.055-1.1 2.809-4.956 2.809-4.956z" fill="#d9935c"/><path d="m70.9983 213.141c.3868-1.417.6735-2.203 1.6496-2.891 1.4178-1.001 3.1016-.73 4.3571-.51.959.168 1.9644-.154 2.3853-.315 2.2219-1.481 7.8015-4.535 10.5785-5.904 1.896 1.099 4.224 3.273 5.3197 7.518-4.2753 1.886-13.6324 1.852-15.4138 1.441 0 0-1.6496 1.198-2.9039 1.309-.4758.042-1.0737-.096-1.6337-.284-.8822-.295-1.8278-.001-2.4622.782-.6101.754-1.4056 1.168-1.7363 1.168-.5124 0-.3843-1.422-.1403-2.314z" fill="#d9935c"/><path d="m178.23 196.59c-1.635 5.007-10.548 13.66-11.78 14.522 0 0-2.075-3.456-1.66-5.391.339-1.58 3.809-7.212 4.997-9.981.062-.144.117-.281.166-.407.163-.425.248-.755.229-.949-.06-.601-1.95-2.064-4.146-3.799-2.855-2.256-6.228-4.97-6.775-6.846-.968-3.318-4.321-16.456-4.321-16.456s8.33 1.801 10.68 3.875 12.443 19.355 12.856 23.779c.047.482-.045 1.041-.246 1.653z" fill="#ffa412"/><path d="m178.23 196.59c-1.635 5.007-10.548 13.66-11.78 14.522 0 0-2.075-3.456-1.66-5.391.357-1.662 4.178-7.809 5.163-10.388 1.481-.258 4.958-.573 8.277 1.257z" fill="#d9935c"/><path d="m154.944 166.129-.006 1.02s.278 3.191-3.651 3.657c-3.929.467-6.887-.958-6.781-3.42.354-1.907.724-3.502.75-5.08.01-.585-.03-1.208-.139-1.91l7.614-.153 2.242.366z" fill="#d9935c"/><path d="m154.973 160.61-.029 5.519c-.809.376-1.722.605-2.744.605-3.499 0-5.76-2.566-6.943-4.428.01-.585-.03-1.208-.139-1.91l7.614-.153z" fill="#cb7d45"/><path d="m148.233 301.422s-.369-2.878-1.225-4.59c-.855-1.712-6.302-.622-6.302-.622s-1.089.933-1.322 5.29z" fill="#233862"/><path d="m166.788 301.412c-1.28-.781-.552-6.608-.552-6.608s5.963-4.771 6.783-1.118c.82 3.652 5.665 5.292 8.422 5.74 1.904.309 2.493 1.363 2.676 1.986z" fill="#233862"/><path d="m154.436 258.385c.243 1.337.397 2.434.438 3.221.554 10.811 9.101 35.533 10.63 36.109 2.366.893 6.091-1.004 8.039-1.625.808-.257 1.352-1.072 1.173-1.898-4.233-19.459-5.788-47.478-6.354-64.067-.286-8.355-1.721-14.127-1.721-14.127s-20.846-5.562-20.969 1.474c-.11 6.226 6.906 30.643 8.764 40.913z" fill="#2b478b"/><path d="m154.436 258.385 13.926-28.26c-.286-8.355-1.721-14.127-1.721-14.127s-20.846-5.562-20.969 1.474c-.11 6.226 6.906 30.643 8.764 40.913z" fill="#233862"/><path d="m159.075 217.496-11.02 79.869s-4.839 1.167-8.603.233c0 0-3.226-42.478-2.958-52.747.269-10.27-2.315-27.479.59-29.377 2.905-1.897 21.991 2.022 21.991 2.022z" fill="#2b478b"/><path d="m167.241 217.645s-5.63 3.283-13.787 3.19c-3.18-.035-5.946-.273-8.293-.623-6.542-.97-9.843-2.797-9.817-3.477.022-.614.065-2.653.143-3.53 1.039-11.989.501-21.313 1.901-28.319.017-.084.032-.169.051-.251 1.851-8.906 4.752-14.023 6.193-16.122.527-.766.857-1.129.874-1.129 0 1.662 3.539 3.097 6.424 2.909 2.43-.158 4.008-2.007 4.008-3.009l.002-.002c.199 0 10.963 7.482 10.973 14.434.038 31.161 1.926 35.94 1.328 35.929z" fill="#ffa412"/><path d="m145.177 220.11c-.006.034-.01.069-.015.102-6.542-.97-9.843-2.797-9.817-3.477.022-.614.065-2.653.143-3.53 1.039-11.989.501-21.313 1.901-28.319 3.432 4.59 10.492 16.611 7.788 35.224z" fill="#e27f2b"/><path d="m163.096 205.207-.88 2.926-.874 2.902-37.948-11.415c-.054.002-.106-.002-.156-.018-.053-.015-.101-.041-.147-.072-.478-.339-.565-1.579-.197-2.976.019-.077.041-.155.064-.233.445-1.503 1.251-2.615 1.871-2.625.051-.001.1.005.147.02.051.015.096.038.14.068z" fill="#e9f3fe"/><path d="m162.217 208.132-.874 2.902-37.949-11.414c-.054.002-.106-.002-.156-.018-.053-.015-.101-.041-.147-.072-.478-.339-.565-1.579-.197-2.976 1.551 1.164 8.959 6.314 21.604 8.819 13.073 2.589 17.117 2.751 17.719 2.759z" fill="#bed4f4"/><path d="m163.169 205.19c-.635-.188-1.539.978-2.018 2.605-.481 1.625-.355 3.095.279 3.283.635.188 1.539-.978 2.018-2.605.481-1.626.355-3.095-.279-3.283z" fill="#afcdfb"/><path d="m125.391 192.712-4.474-.726c-.049-.023-.095-.041-.147-.049-.051-.007-.098-.009-.148 0-.614.091-1.268 1.298-1.511 2.846-.013.082-.024.16-.034.241-.086.686-.074 1.32.017 1.828.1.543.292.938.554 1.087.006.003.011.007.015.009.05.026.101.044.155.053.051.008.104.007.157-.003l39.117 6.348.486-2.992.488-3.015z" fill="#e9f3fe"/><path d="m141.651 200.937c-8.367-.539-12.802-4.961-16.26-8.227l-4.474-.725c-.049-.024-.095-.041-.147-.049-.051-.008-.098-.009-.148 0-.614.091-1.268 1.298-1.511 2.846-.013.082-.024.16-.034.241-.086.685-.074 1.32.017 1.827.21.595.426.998.554 1.087.006.004.011.008.015.01.05.026.101.044.155.053.051.008.104.007.157-.003l39.117 6.347.486-2.991c-.598.07-4.629.44-17.927-.416z" fill="#bed4f4"/><path d="m160.137 198.311c-.654-.103-1.397 1.171-1.661 2.846-.263 1.676.054 3.115.708 3.219.654.103 1.397-1.171 1.66-2.846.263-1.674-.055-3.115-.707-3.219z" fill="#afcdfb"/><path d="m146.22 209.823c-9.073-1.444-15.07-5.246-17.532-7.084-.841-.627-1.269-1.028-1.269-1.028-4.648-9.774 3.762-26.911 5.299-29.816 1.66-3.133 11.789-4.509 11.789-4.509s-1.618 4.758-2.25 10.961-7.373 18.295-7.096 19.309c.069.256.883.792 2.07 1.469 3.522 2.004 10.326 5.236 10.74 5.995.553 1.015-1.751 4.703-1.751 4.703z" fill="#d9935c"/><path d="m147.971 205.122s5.069-2.028 6.313-1.199c1.244.83 3.317 2.075 3.317 2.903 0 .83-2.627 3.042-4.839 3.732-2.212.691-6.543-.737-6.543-.737z" fill="#d9935c"/><path d="m142.257 178.347c-.632 6.203-7.373 18.295-7.096 19.309.069.256.883.792 2.07 1.469-.074.006-.15.007-.228.003-5.302-.234-7.702 2.7-8.315 3.608-.841-.627-1.269-1.027-1.269-1.027-4.648-9.774 3.762-26.911 5.299-29.816 1.66-3.133 11.789-4.51 11.789-4.51s-1.619 4.761-2.25 10.964z" fill="#ffa412"/><path d="m155.417 163.292s-9.751 1.969-10.883-4.121c-1.134-6.091-3.155-9.94 3.022-11.455 6.178-1.515 7.823.583 8.696 2.525.872 1.941 1.673 12.383-.835 13.051z" fill="#d9935c"/><path d="m144.728 160.928s-1.885-4.023-3.457-5.809c-1.571-1.787-.715-10.719 6.074-10.434 6.789.286 9.218 5.146 9.29 6.074.072.929-5.431.215-6.932 1.429-1.5 1.215-.072 3.216-1.786 3.93-1.715.715-3.072.715-2.787 2.286.285 1.573-.402 2.524-.402 2.524z" fill="#233862"/><path d="m146.823 140.537c-1.943.488-3.4 1.268-4.488 2.206-.107.093-.212.188-.313.284l-.002.001c-4.025 3.839-2.419 9.95-2.419 9.95s.535 1.544.904 2.143c.368.599 5.714-.093 5.991-1.245.277-1.151 1.336-2.349 1.336-2.349s5.634-.387 6.014-.415c1.272-.093 4.906-1.357 4.906-1.357-.042-.355-2.087-11.69-11.929-9.218z" fill="#ffa412"/><path d="m162.09 148.559c-.676-.165-1.829-.349-3.727-.418 0 0-1.595 1.321-4.766 2.328-1.49-1.878-5.735-6.402-11.262-7.725-.017-.004-.032-.008-.049-.012-.117.148-.184.198-.266.298l-.001.001c-.024.029-.051.063-.08.106 4.499.785 8.776 5.837 10.244 7.729-1.259.31-2.709.554-4.351.663 0 0 9.847.184 14.348-2.186.344-.182.287-.691-.09-.784z" fill="#e27f2b"/><path d="m172.118 193.278c-.183 1.035-.739 2.122-2.33 2.462.062-.144.117-.281.166-.407.163-.425.249-.754.229-.948-.06-.602-1.95-2.065-4.146-3.8-.18-.985-.623-3.906-.001-6.224.759-2.834 6.29 7.742 6.082 8.917z" fill="#e27f2b"/><path d="m136.174 198.428s-6.775-.553-8.987 3.387c0 0 .189 1.329 1.5.924 0 0 5.731-3.917 8.543-3.613.001 0-.434-.686-1.056-.698z" fill="#e27f2b"/><path d="m169.787 195.74s3.514.148 7.938 2.074c0 0 .982-.965.59-1.518-.39-.552-6.619-2.54-8.528-.556z" fill="#e27f2b"/><path d="m297.304 220.839 6.374 75.786s.667 4.593-2.749 4.602c-5.619.013-27.965 0-27.965 0s4.229-.957 4.177-3.108c-.059-2.536-7.45-77.996-7.45-77.996z" fill="#d86713"/><path d="m299.069 299.852c-5.472.069-26.814.003-27.92 0 .416 0 3.627-.08 4.08-2.495.036-.19.055-.395.054-.613-.002-.472-.262-3.471-.683-8.041-.377-4.097-.883-9.457-1.452-15.389-2.201-22.988-5.314-54.566-5.314-54.566l27.613.716 4.529 53.85.883 10.51.795 9.456.166 1.969s.779 4.558-2.751 4.603z" fill="#ee9849"/><path d="m364.362 179.6-15.525 62.362-2.126 8.541-7.231 29.046h-134.338l26.651-99.949z" fill="#f1a34f"/><path d="m364.362 179.6 2.152.718-24.173 101.4-2.861-2.169z" fill="#ee9849"/><path d="m342.341 281.718h-133.512l-3.687-2.169h134.338z" fill="#d86713"/><path d="m295.455 299.882h-28.907v1.374h28.907z" fill="#f1a34f"/><path d="m301.04 281.674-.181 2.15-.006.08s-18.777 1.799-26.253 4.799c-.188-2.054-.41-4.426-.657-7.029z" fill="#d86713"/><path d="m299.069 299.852c-5.472.069-26.814.003-27.92 0 .416 0 3.627-.08 4.08-2.495 2.199.113 14.421.503 26.425-4.077l.166 1.969s.779 4.558-2.751 4.603z" fill="#d86713" opacity=".4"/><path d="m344.191 259.928-4.886 19.621h-45.228c19.124-6.075 28.176-14.964 31.824-19.621z" fill="#d86713" opacity=".4"/><path d="m363.349 180.922-19.158 79.006h-132.213l21.47-79.006z" fill="#d2e4ff"/><path d="m210.343 259.928h1.635l-.328 1.204-1.581-.179z" fill="#f1a34f"/><path d="m265.131 134.151h-.415v7.374h.415z" fill="#739af0"/><path d="m288.082 134.151h-.415v7.374h.415z" fill="#739af0"/><path d="m268.031 134.151h-.415v7.374h.415z" fill="#739af0"/><path d="m290.154 134.151h-.415v7.374h.415z" fill="#739af0"/><path d="m259.882 127.138.002.001-.015-.01c-.022-.017-.045-.032-.069-.048l-20.609-14.081-48.224 14.523-.347 14.509h-1.105c-.654 0-1.19.535-1.19 1.189v1.19c0 .654.536 1.189 1.19 1.189h3.832c.654 0 1.19-.535 1.19-1.189v-1.19c0-.654-.536-1.189-1.19-1.189h-1.865l9.093-9.781h32.621v127.677h7.931v-127.677h6.741v2.776c0 .654.536 1.189 1.19 1.189h10.111c.654 0 1.19-.535 1.19-1.189v-6.939c0-.388-.188-.732-.477-.95zm-68.568 14.055.337-8.942h7.979zm57.744-14.296c-.587 0-1.076.431-1.171.991h-55.717l46.905-14.13 19.364 13.138h-9.381z" fill="#739af0"/><path d="m359.268 173.943h-.676l-.152-8.847-29.537-8.899-12.63 8.628.417-.133c-.4 0-.727.327-.727.727v4.241c0 .4.327.727.727.727h6.18c.4 0 .727-.327.727-.727v-1.697h4.121v78.044h4.847v-78.043h19.941l5.559 5.979h-1.141c-.4 0-.727.327-.727.727v.727c0 .4.327.727.727.727h2.342c.401 0 .728-.327.728-.727v-.727c.001-.399-.326-.727-.726-.727zm-35.68-8.645c-.059-.343-.358-.606-.716-.606h-5.802l11.903-8.031 28.672 8.637zm29.497 2.666h4.939l.144 5.466z" fill="#739af0"/><path d="m319.134 176.213v-.517h-1.133v-3.416h-.938v3.416h-2.376v-3.416h-.937v3.416h-2.583v-3.416h-.938v3.416h-2.376v-3.416h-.937v3.416h-1.242v.517h1.242v1.664h-1.242v.518h1.242v1.663h-1.242v.517h1.242v1.663h-1.242v.518h1.242v1.663h-1.242v.517h1.242v1.663h-1.242v.517h1.242v1.346h-1.242v.517h1.242v1.663h-1.242v.518h1.242v1.663h-1.242v.517h1.242v1.663h-1.242v.517h1.242v1.663h-1.242v.518h1.242v1.663h-1.242v.517h1.242v1.588h-1.242v.517h1.242v1.663h-1.242v.517h1.242v1.663h-1.242v.518h1.242v1.663h-1.242v.517h1.242v1.663h-1.242v.517h1.242v1.663h-1.242v.518h1.242v1.345h-1.242v.518h1.242v1.663h-1.242v.517h1.242v1.663h-1.242v.517h1.242v1.663h-1.242v.518h1.242v1.663h-1.242v.517h1.242v1.663h-1.242v.518h1.242v1.483h-1.242v.518h1.242v1.663h-1.242v.517h1.242v1.663h-1.242v.517h1.242v1.663h-1.242v.518h1.242v1.663h-1.242v.517h1.242v1.663h-1.242v.517h1.242v1.346h-1.242v.517h1.242v1.663h-1.242v.518h1.242v1.663h-1.242v.517h13.459v-.517h-1.133v-1.663h1.133v-.518h-1.133v-1.663h1.133v-.517h-1.133v-1.346h1.133v-.517h-1.133v-1.663h1.133v-.517h-1.133v-1.663h1.133v-.518h-1.133v-1.663h1.133v-.517h-1.133v-1.663h1.133v-.517h-1.133v-1.663h1.133v-.518h-1.133v-1.483h1.133v-.518h-1.133v-1.649h1.133v-.518h-1.133v-1.663h1.133v-.517h-1.133v-1.663h1.133v-.517h-1.133v-1.663h1.133v-.518h-1.133v-1.665h1.133v-.518h-1.133v-1.345h1.133v-.518h-1.133v-1.663h1.133v-.517h-1.133v-1.663h1.133v-.517h-1.133v-1.666h1.133v-.517h-1.133v-1.663h1.133v-.518h-1.133v-1.663h1.133v-.517h-1.133v-1.587h1.133v-.518h-1.133v-1.663h1.133v-.517h-1.133v-1.663h1.133v-.517h-1.133v-1.663h1.133v-.518h-1.133v-1.663h1.133v-.517h-1.133v-1.663h1.133v-.517h-1.133v-1.346h1.133v-.518h-1.133v-1.663h1.133v-.517h-1.133v-1.663h1.133v-.517h-1.133v-1.663h1.133v-.518h-1.133v-1.663h1.133v-.526h-1.133v-1.663h1.134zm-5.384 0v1.664h-2.583v-1.663h2.583zm-2.582 65.888v-1.663h2.583v1.663zm2.582.517v1.663h-2.583v-1.663zm-2.582-2.699v-1.345h2.583v1.345zm0-1.863v-1.663h2.583v1.663zm0-2.181v-1.663h2.583v1.663zm0-2.181v-1.663h2.583v1.663zm0-2.181v-1.663h2.583v1.663zm0-2.182v-1.663h2.583v1.663zm0-2.18v-1.484h2.583v1.484zm0-2.002v-1.663h2.583v1.663zm0-2.181v-1.663h2.583v1.663zm0-2.181v-1.663h2.583v1.663zm0-2.181v-1.663h2.583v1.663zm0-2.181v-1.663h2.583v1.663zm0-2.181v-1.345h2.583v1.345zm0-1.864v-1.663h2.583v1.663zm0-2.18v-1.663h2.583v1.663zm0-2.182v-1.663h2.583v1.663zm0-2.18v-1.663h2.583v1.663zm0-2.182v-1.663h2.583v1.663zm0-2.181v-1.588h2.583v1.588zm0-2.105v-1.663h2.583v1.663zm0-2.18v-1.663h2.583v1.663zm0-2.182v-1.663h2.583v1.663zm0-2.182v-1.663h2.583v1.663zm0-2.18v-1.663h2.583v1.663zm0-2.182v-1.345h2.583v1.345zm0-1.863v-1.663h2.583v1.663zm0-2.181v-1.663h2.583v1.663zm0-2.181v-1.663h2.583v1.663zm0-2.181v-1.663h2.583v1.663zm-3.312-3.845h2.375v1.664h-2.375zm0 2.182h2.375v1.663h-2.375zm0 2.181h2.375v1.663h-2.375zm0 2.181h2.375v1.663h-2.375zm0 2.181h2.375v1.663h-2.375zm0 2.181h2.375v1.345h-2.375zm0 1.864h2.375v1.663h-2.375zm0 2.18h2.375v1.663h-2.375zm0 2.182h2.375v1.663h-2.375zm0 2.18h2.375v1.663h-2.375zm0 2.182h2.375v1.663h-2.375zm0 2.18h2.375v1.588h-2.375zm0 2.106h2.375v1.663h-2.375zm0 2.181h2.375v1.663h-2.375zm0 2.181h2.375v1.663h-2.375zm0 2.18h2.375v1.663h-2.375zm0 2.182h2.375v1.663h-2.375zm0 2.182h2.375v1.345h-2.375zm0 1.863h2.375v1.663h-2.375zm0 2.18h2.375v1.663h-2.375zm0 2.182h2.375v1.663h-2.375zm0 2.181h2.375v1.663h-2.375zm0 2.181h2.375v1.663h-2.375zm0 2.181h2.375v1.484h-2.375zm0 2.001h2.375v1.663h-2.375zm0 2.182h2.375v1.663h-2.375zm0 2.18h2.375v1.663h-2.375zm0 2.182h2.375v1.663h-2.375zm0 2.18h2.375v1.663h-2.375zm0 2.182h2.375v1.345h-2.375zm0 1.863h2.375v1.663h-2.375zm0 2.181h2.375v1.663h-2.375zm9.208 1.663h-2.376v-1.663h2.376zm0-2.18h-2.376v-1.663h2.376zm0-2.182h-2.376v-1.345h2.376zm0-1.863h-2.376v-1.663h2.376zm0-2.181h-2.376v-1.663h2.376zm0-2.181h-2.376v-1.663h2.376zm0-2.181h-2.376v-1.663h2.376zm0-2.182h-2.376v-1.663h2.376zm0-2.18h-2.376v-1.484h2.376zm0-2.002h-2.376v-1.663h2.376zm0-2.181h-2.376v-1.663h2.376zm0-2.181h-2.376v-1.663h2.376zm0-2.181h-2.376v-1.663h2.376zm0-2.181h-2.376v-1.663h2.376zm0-2.181h-2.376v-1.345h2.376zm0-1.864h-2.376v-1.663h2.376zm0-2.18h-2.376v-1.663h2.376zm0-2.182h-2.376v-1.663h2.376zm0-2.18h-2.376v-1.663h2.376zm0-2.182h-2.376v-1.663h2.376zm0-2.181h-2.376v-1.588h2.376zm0-2.105h-2.376v-1.663h2.376zm0-2.18h-2.376v-1.663h2.376zm0-2.182h-2.376v-1.663h2.376zm0-2.182h-2.376v-1.663h2.376zm0-2.18h-2.376v-1.663h2.376zm0-2.182h-2.376v-1.345h2.376zm0-1.863h-2.376v-1.663h2.376zm0-2.181h-2.376v-1.663h2.376zm0-2.181h-2.376v-1.663h2.376zm0-2.181h-2.376v-1.663h2.376zm0-2.181h-2.376v-1.663h2.376z" fill="#739af0"/><path d="m301.189 140.184h-38.48v119.744h38.48z" fill="#739af0"/><path d="m290.575 156.639h-27.852v17.543h27.852z" fill="#aed3ff" opacity=".5"/><path d="m290.575 188.762h-27.852v17.543h27.852z" fill="#aed3ff" opacity=".5"/><path d="m290.575 220.469h-27.852v17.543h27.852z" fill="#aed3ff" opacity=".5"/><path d="m343.982 237.9v-16.221h-42.779v-81.562h-10.627v119.811h10.627 42.988l5.341-22.028z" fill="#4a75cb"/><path d="m338.339 259.918.938.002v-1.501h2.376v1.504l.938.001v-1.505h1.967l.126-.517h-2.092v-1.663h2.495l1.14-4.7h-.115v-1.663h.519l.126-.518h-.645v-1.663h1.047l.126-.517h-1.173v-1.663h1.577l.125-.517h-1.7v-1.663h2.104l.126-.518h-2.23v-1.346h2.375v.748l.937-3.866v-1.244h.302l.125-.517h-.427v-1.663h.83l.126-.517h-.956v-1.663h1.134v-.518h-1.134v-1.663h1.134v-.517h-1.134v-1.587h1.134v-.518h-1.134v-1.663h1.134v-.517h-1.134v-1.67h1.134v-.518h-1.134v-1.663h1.134v-.517h-1.134v-1.663h1.134v-.517h-1.134v-1.663h1.134v-.518h-1.134v-1.348h1.134v-.517h-1.134v-1.663h1.134v-.518h-1.134v-1.663h1.134v-.517h-1.134v-1.663h1.134v-.517h-1.134v-1.666h1.134v-.517h-1.134v-1.663h1.134v-.518h-1.134v-3.416h-.937v3.416h-2.375v-3.416h-.937v3.416h-2.583v-3.416h-.939v3.416h-2.375v-3.416h-.939v3.416h-1.242v.518h1.242v1.663h-1.242v.517h1.242v1.663h-1.242v.518h1.242v1.663h-1.242v.517h1.242v1.663h-1.242v.517h1.242v1.663h-1.242v.518h1.242v1.345h-1.242v.518h1.242v1.663h-1.242v.517h1.242v1.663h-1.242v.517h1.242v1.663h-1.242v.518h1.242v1.663h-1.242v.517h1.242v1.663h-1.242v.517h1.242v1.588h-1.242v.517h1.242v1.663h-1.242v.518h1.242v1.663h-1.242v.517h1.242v1.663h-1.242v.517h1.242v1.663h-1.242v.518h1.242v1.663h-1.242v.517h1.242v1.346h-1.242v.517h1.242v1.663h-1.242v.517h1.242v1.663h-1.242v.518h1.242v1.663h-1.242v.517h1.242v1.663h-1.242v.518h1.242v1.663h-1.242v.517h1.242v1.498h-1.242v.518h1.242v1.663h-1.242v.517h1.242v1.499zm7.771-55.134h2.376v1.663h-2.376zm0 2.181h2.376v1.663h-2.376zm0 2.181h2.376v1.663h-2.376zm0 2.181h2.376v1.663h-2.376zm0 2.18h2.376v1.663h-2.376zm0 2.182h2.376v1.346h-2.376zm0 1.863h2.376v1.663h-2.376zm0 2.182h2.376v1.663h-2.376zm0 2.18h2.376v1.663h-2.376zm0 2.182h2.376v1.663h-2.376zm0 2.18h2.376v1.663h-2.376zm0 2.182h2.376v1.587h-2.376zm0 2.104h2.376v1.663h-2.376zm0 2.182h2.376v1.663h-2.376zm0 2.181h2.376v1.663h-2.376zm0 2.181h2.376v1.663h-2.376zm0 2.181h2.376v1.663h-2.376zm-3.52-34.503h2.583v1.663h-2.583zm0 2.181h2.583v1.663h-2.583zm0 2.181h2.583v1.663h-2.583zm0 2.181h2.583v1.663h-2.583zm0 2.18h2.583v1.663h-2.583zm0 2.182h2.583v1.346h-2.583zm0 1.863h2.583v1.663h-2.583zm0 2.182h2.583v1.663h-2.583zm0 2.18h2.583v1.663h-2.583zm0 2.182h2.583v1.663h-2.583zm0 2.18h2.583v1.663h-2.583zm0 2.182h2.583v1.587h-2.583zm0 2.104h2.583v1.663h-2.583zm0 2.182h2.583v1.663h-2.583zm0 2.181h2.583v1.663h-2.583zm0 2.181h2.583v1.663h-2.583zm0 2.181h2.583v1.663h-2.583zm0 2.181h2.583v1.346h-2.583zm0 1.864h2.583v1.663h-2.583zm0 2.18h2.583v1.663h-2.583zm0 2.182h2.583v1.663h-2.583zm0 2.18h2.583v1.663h-2.583zm0 2.182h2.583v1.663h-2.583zm0 2.18h2.583v1.485h-2.583zm-3.313-49.452h2.376v1.663h-2.376zm0 2.181h2.376v1.663h-2.376zm0 2.181h2.376v1.663h-2.376zm0 2.181h2.376v1.663h-2.376zm0 2.18h2.376v1.663h-2.376zm0 2.182h2.376v1.346h-2.376zm0 1.863h2.376v1.663h-2.376zm0 2.182h2.376v1.663h-2.376zm0 2.18h2.376v1.663h-2.376zm0 2.182h2.376v1.663h-2.376zm0 2.18h2.376v1.663h-2.376zm0 2.182h2.376v1.587h-2.376zm0 2.104h2.376v1.663h-2.376zm0 2.182h2.376v1.663h-2.376zm0 2.181h2.376v1.663h-2.376zm0 2.181h2.376v1.663h-2.376zm0 2.181h2.376v1.663h-2.376zm0 2.181h2.376v1.346h-2.376zm0 1.864h2.376v1.663h-2.376zm0 2.18h2.376v1.663h-2.376zm0 2.182h2.376v1.663h-2.376zm0 2.18h2.376v1.663h-2.376zm0 2.182h2.376v1.663h-2.376zm0 2.18h2.376v1.485h-2.376zm0 2.003h2.376v1.663h-2.376z" fill="#739af0"/><path d="m382.908 302.16h-337.5371c-.2037 0-.3709-.167-.3709-.371 0-.203.1672-.371.3709-.371h337.5351c.204 0 .371.168.371.371.001.204-.166.371-.369.371z" fill="#283250"/><path d="m262.709 193.094h-38.382v66.833h38.382z" fill="#4a75cb"/><path d="m229.912 196.243h-3.051v11.962h3.051z" fill="#fff"/><path d="m236.012 196.243h-3.05v11.962h3.05z" fill="#fff"/><path d="m242.092 196.243h-3.05v11.962h3.05z" fill="#fff"/><path d="m248.193 196.243h-3.05v11.962h3.05z" fill="#fff"/><path d="m254.293 196.243h-3.05v11.962h3.05z" fill="#fff"/><path d="m260.394 196.243h-3.05v11.962h3.05z" fill="#fff"/><g fill="#ebf2f9"><path d="m229.912 212.104h-3.051v11.962h3.051z"/><path d="m236.012 212.104h-3.05v11.962h3.05z"/><path d="m242.092 212.104h-3.05v11.962h3.05z"/><path d="m248.193 212.104h-3.05v11.962h3.05z"/><path d="m254.293 212.104h-3.05v11.962h3.05z"/><path d="m260.394 212.104h-3.05v11.962h3.05z"/><path d="m229.912 227.966h-3.051v11.962h3.051z"/><path d="m236.012 227.966h-3.05v11.962h3.05z"/><path d="m242.092 227.966h-3.05v11.962h3.05z"/><path d="m248.193 227.966h-3.05v11.962h3.05z"/><path d="m254.293 227.966h-3.05v11.962h3.05z"/><path d="m260.394 227.966h-3.05v11.962h3.05z"/><path d="m229.912 243.949h-3.051v11.963h3.051z"/><path d="m236.012 243.949h-3.05v11.963h3.05z"/><path d="m242.092 243.949h-3.05v11.963h3.05z"/><path d="m248.193 243.949h-3.05v11.963h3.05z"/><path d="m254.293 243.949h-3.05v11.963h3.05z"/><path d="m260.394 243.949h-3.05v11.963h3.05z"/></g><path d="m259.275 175.581h-15.048v17.963h15.048z" fill="#4a75cb"/></svg>