<svg width="18" height="22" viewBox="0 0 18 22" fill="none" xmlns="http://www.w3.org/2000/svg">
<path d="M13.3001 2.45258C13.3001 3.79444 12.2072 4.88741 10.8653 4.88741H7.07777C6.40684 4.88741 5.80084 4.61687 5.35716 4.17319C4.91348 3.72951 4.64294 3.12351 4.64294 2.45258C4.64294 1.11072 5.73591 0.0177498 7.07777 0.0177498H10.8653C11.5362 0.0177498 12.1422 0.288287 12.5859 0.731967C13.0296 1.17565 13.3001 1.78165 13.3001 2.45258Z" fill="white"/>
<path d="M16.3626 3.29666C16.1137 3.09105 15.8323 2.92873 15.5293 2.80969C15.2155 2.69066 14.9017 2.93955 14.8368 3.26419C14.4688 5.11466 12.8348 6.51063 10.8653 6.51063H7.07778C5.99563 6.51063 4.97841 6.0886 4.21009 5.32027C3.64737 4.75756 3.2578 4.04334 3.1063 3.27502C3.04137 2.95037 2.71673 2.69066 2.4029 2.82051C1.14761 3.32912 0.314362 4.4762 0.314362 6.78117V17.3321C0.314362 20.5785 2.2514 21.6607 4.64295 21.6607H13.3001C15.6917 21.6607 17.6287 20.5785 17.6287 17.3321V6.78117C17.6287 5.01727 17.1417 3.93512 16.3626 3.29666ZM4.64295 11.1098H8.97154C9.41522 11.1098 9.78315 11.4777 9.78315 11.9214C9.78315 12.365 9.41522 12.733 8.97154 12.733H4.64295C4.19927 12.733 3.83134 12.365 3.83134 11.9214C3.83134 11.4777 4.19927 11.1098 4.64295 11.1098ZM13.3001 17.0616H4.64295C4.19927 17.0616 3.83134 16.6936 3.83134 16.25C3.83134 15.8063 4.19927 15.4383 4.64295 15.4383H13.3001C13.7438 15.4383 14.1117 15.8063 14.1117 16.25C14.1117 16.6936 13.7438 17.0616 13.3001 17.0616Z" fill="white"/>
</svg>
