<svg fill="none" height="466" viewBox="0 0 428 466" width="428" xmlns="http://www.w3.org/2000/svg"><path d="m0 0h428v436c0 16.569-13.431 30-30 30h-368c-16.5685 0-30-13.431-30-30z" fill="#77cce0" fill-opacity=".24"/><g fill="#f7f9ff"><path d="m338.16 374.084.511-.256c.202-.094 4.936-2.474 6.146-6.052.579-1.735.78-3.484.552-4.95-.242-1.573-.969-2.636-2.018-2.999-2.084-.699-4.707 1.681-5.985 5.434-1.197 3.551.511 8.097.578 8.285zm5.339-12.979c.417.376.713 1.036.848 1.896.201 1.291.027 2.879-.511 4.452-.848 2.529-3.874 4.466-5.098 5.165-.403-1.291-1.224-4.506-.377-7.021l-.497-.161.497.161c1.05-3.093 3.175-5.286 4.668-4.775.161.054.322.148.47.283z"/><path d="m335.242 380.15.511.255c.202.108 4.936 2.489 8.527 1.318 3.766-1.223 6.174-3.819 5.501-5.917-.35-1.063-1.399-1.789-2.972-2.058-1.453-.242-3.215-.068-4.95.497-3.564 1.157-6.187 5.246-6.308 5.407zm13.127-4.64c.202.188.35.39.43.632.484 1.493-1.721 3.604-4.828 4.613-2.529.821-5.891-.444-7.196-1.009.794-1.089 2.878-3.671 5.407-4.492 1.587-.511 3.161-.672 4.465-.457.74.121 1.332.363 1.722.713z"/><path d="m330.668 377.46c2.179 1.95 5.004 2.918 5.152 2.972l.538.189.134-.552c.054-.215 1.251-5.38-.74-8.594-.954-1.56-2.192-2.825-3.456-3.578-1.372-.82-2.65-.941-3.591-.363-.942.592-1.399 1.789-1.291 3.376.107 1.466.699 3.134 1.654 4.694.43.699.982 1.318 1.6 1.856zm4.923 1.789c-1.251-.511-4.25-1.937-5.649-4.183-.874-1.412-1.412-2.919-1.506-4.223-.081-1.171.202-2.045.793-2.421.592-.364 1.507-.229 2.515.363 1.13.672 2.233 1.815 3.107 3.241 1.413 2.26.982 5.824.74 7.223z"/><path d="m328.798 390.143 1.224.767.027-.027c.041.013.081.04.121.054l.417.201.242-.39c.606-.955 1.17-1.883 1.682-2.743 6.402-10.72 7.545-15.696 7.585-15.898l.108-.511-2.004-.431-.108.511c-.027.122-1.21 5.071-7.518 15.589-.484.807-.996 1.627-1.493 2.434z"/></g><g fill="#3f964f"><path d="m276.586 380.715c0-9.765 7.909-17.673 17.673-17.673 7.761 0 14.338 4.99 16.718 11.943 1.009-.619 2.206-.968 3.484-.968 3.699 0 6.698 2.999 6.698 6.698 0 .565-.067 1.116-.202 1.654.686-.108 1.399-.161 2.112-.161 7.828 0 14.189 6.348 14.189 14.189 0 7.828-6.146 13.464-13.988 13.464-3.295 0-33.274-1.319-33.274-1.319s-13.41-20.242-13.41-27.827z"/><path d="m63.8499 405.731c0 .646.0538 1.265.1749 1.87h92.3202l-5.824-29.791c4.317-2.744 7.115-7.115 7.115-12.051 0-8.299-7.922-15.037-17.7-15.037s-17.7 6.725-17.7 15.037c0 1.129.148 2.232.43 3.295-.699-.068-1.412-.108-2.138-.108-8.111 0-14.997 4.439-17.485 10.612-1.063-.551-2.3-.861-3.6317-.861-3.8735 0-7.0073 2.663-7.0073 5.959 0 .511.0807.995.2152 1.466-.7263-.095-1.4661-.135-2.2058-.135-7.0343 0-12.9253 4.17-14.4452 9.751-.6187-.121-1.2642-.188-1.9233-.188-5.6355-.014-10.195 4.546-10.195 10.181z"/><path d="m128.395 316.398c3.04 3.281 8.985 4.061 8.985 4.061s.256-6.536-2.784-9.818-6.9-4.654-8.608-3.067c-1.708 1.601-.632 5.542 2.407 8.824z"/><path d="m141.011 317.393c-.82 4.398 2.099 9.63 2.099 9.63s5.393-3.699 6.213-8.097c.821-4.398-.39-8.312-2.676-8.742-2.3-.417-4.829 2.811-5.636 7.209z"/><path d="m150.131 338.361c.296.713.538 1.197.605 1.318.013.014.013.027.013.027l.014-.013c.054-.041.229-.162.498-.35 1.385-1.022 5.124-4.062 5.85-7.613.901-4.384-.228-8.325-2.515-8.782-2.286-.471-4.869 2.703-5.77 7.088-.403 1.963-.054 4.102.444 5.877.282.955.592 1.803.861 2.448z"/><path d="m134.246 331.354c4.466-.256 8.864-4.331 8.864-4.331s-4.869-4.371-9.334-4.116c-4.466.256-7.99 2.341-7.855 4.681.134 2.34 3.86 4.021 8.325 3.766z"/><path d="m141.9 342.759c4.465.215 9.267-3.376 9.267-3.376s-4.385-4.855-8.864-5.07c-4.465-.215-8.191 1.506-8.299 3.833-.107 2.327 3.43 4.398 7.896 4.613z"/><path d="m135.753 319.357c.053.04 4.801 4.236 12.669 17.578.579.982 1.17 2.005 1.776 3.081l.067-.041.484-.269.014-.013c.053-.041.228-.162.497-.35-.686-1.21-1.345-2.354-1.99-3.43-7.855-13.248-12.495-17.323-12.71-17.498z"/><path d="m327.952 276.694c-3.282 2.905-4.183 8.688-4.183 8.688s6.388.404 9.67-2.501c3.282-2.906 4.708-6.645 3.201-8.353-1.533-1.708-5.407-.74-8.688 2.166z"/><path d="m326.687 289c-4.291-.901-9.469 1.829-9.469 1.829s3.497 5.367 7.774 6.255c4.29.901 8.137-.189 8.608-2.421.471-2.22-2.623-4.762-6.913-5.663z"/><path d="m305.974 297.447c-.712.269-1.183.497-1.304.565-.014 0-.027.013-.027.013l.013.014c.041.053.148.228.337.484.968 1.372 3.846 5.097 7.316 5.891 4.264.982 8.137-.041 8.649-2.26.511-2.219-2.542-4.828-6.806-5.797-1.91-.444-4.022-.148-5.757.296-.955.256-1.788.538-2.421.794z"/><path d="m313.184 282.06c.148 4.371 4.021 8.769 4.021 8.769s4.385-4.667 4.237-9.038-2.112-7.868-4.398-7.787c-2.26.08-3.995 3.685-3.86 8.056z"/><path d="m301.858 289.296c-.309 4.371 3.094 9.146 3.094 9.146s4.842-4.183 5.164-8.554c.31-4.371-1.277-8.043-3.55-8.204-2.287-.162-4.385 3.241-4.708 7.612z"/><path d="m324.885 283.822c-.041.054-4.25 4.6-17.485 11.997-.968.538-1.991 1.103-3.053 1.668l.04.067.256.471.013.014c.041.053.148.228.336.484 1.197-.646 2.327-1.265 3.403-1.87 13.141-7.37 17.229-11.822 17.404-12.024z"/><path d="m323.687 330.735c-3.241-1.789-8.11-.861-8.11-.861s1.493 5.205 4.734 6.981c3.242 1.789 6.631 1.856 7.559.175.928-1.695-.941-4.519-4.183-6.295z"/><path d="m313.519 333.223c-.497-3.671-4.156-7.021-4.156-7.021s-3.282 4.304-2.77 7.976c.497 3.672 2.461 6.429 4.371 6.16 1.923-.269 3.066-3.456 2.555-7.115z"/><path d="m300.917 319.128c-.417-.484-.74-.794-.821-.874-.013-.014-.013-.014-.027-.014l-.013.014c-.04.053-.148.188-.296.403-.82 1.157-2.972 4.519-2.609 7.505.43 3.672 2.34 6.47 4.25 6.241 1.923-.229 3.12-3.389 2.69-7.061-.188-1.641-1.022-3.242-1.87-4.506-.457-.686-.928-1.278-1.304-1.708z"/><path d="m315.215 320.5c-3.444 1.358-5.838 5.702-5.838 5.702s4.963 2.166 8.406.807c3.444-1.358 5.663-3.913 4.95-5.702-.713-1.803-4.075-2.166-7.518-.807z"/><path d="m306.243 313.533c-3.564.995-6.402 5.057-6.402 5.057s4.707 2.663 8.272 1.681c3.564-.995 6.039-3.295 5.527-5.165-.524-1.856-3.833-2.555-7.397-1.573z"/><path d="m317.138 330.318c-.054-.027-4.869-2.071-14.513-10.518-.713-.618-1.439-1.277-2.192-1.963l-.04.04-.31.336-.013.014c-.041.054-.148.188-.296.403.847.767 1.668 1.493 2.448 2.179 9.603 8.366 14.31 10.356 14.526 10.451z"/></g><g fill="#f7f9ff"><path d="m70.1316 360.957.0941-.525c.0404-.201.9281-5.07-1.0625-7.989-1.5602-2.286-3.6853-3.766-5.3934-3.766-.5111 0-.9684.135-1.3584.404-1.6947 1.156-1.3854 4.452.6994 7.505 1.9771 2.891 6.3214 4.169 6.5097 4.223zm-6.3483-11.298c1.3584 0 3.2414 1.372 4.5863 3.336 1.3988 2.044 1.1568 5.393.9954 6.711-1.1836-.417-4.0484-1.614-5.4472-3.658-1.7216-2.515-2.152-5.34-.9415-6.16.2152-.148.4842-.229.807-.229z"/><path d="m73.0235 366.539.4842-.229c.1883-.094 4.6267-2.286 5.77-5.622 1.197-3.497.6187-6.752-1.3316-7.424-.2286-.081-.4707-.121-.7263-.121-1.8291 0-3.8466 2.125-4.8823 5.151-1.1432 3.309.4305 7.559.4977 7.734zm4.1963-12.415c.148 0 .2825.027.4035.068 1.3854.47 1.7216 3.308.7263 6.187-.8069 2.353-3.6314 4.156-4.7881 4.801-.3632-1.197-1.1164-4.21-.3094-6.55.8877-2.569 2.5958-4.506 3.9677-4.506z"/><path d="m77.1787 376.72.6725-.107.0404-.068c.0807-.04.1883-.094.3228-.161 1.3046-.686 4.4384-2.596 5.4337-5.286.5784-1.6.807-3.241.6322-4.6-.1883-1.479-.8339-2.488-1.8158-2.838-.2421-.094-.4976-.134-.7666-.134-1.8157 0-3.8467 2.085-4.9361 5.057-.4707 1.278-.5783 2.838-.3497 4.654.0807.645.2018 1.304.3766 1.977.1345.565.269.955.3094 1.076zm4.5192-12.226c.1479 0 .2959.027.4304.081.6052.229 1.0491.968 1.1836 2.058.1614 1.21-.0404 2.69-.5784 4.142-.8608 2.367-3.8332 4.143-4.8823 4.708-.0403-.148-.0807-.31-.1345-.498-.1614-.632-.2824-1.251-.3496-1.856-.2152-1.654-.1211-3.067.2958-4.196.9415-2.542 2.6631-4.439 4.035-4.439z"/><path d="m66.7821 368.623c3.3086 0 6.6307-2.246 6.7787-2.34l.4438-.296-.3362-.403c-.1345-.162-3.3087-3.955-6.8325-4.277-.3766-.041-.7398-.054-1.1164-.054-3.2414 0-5.6086 1.278-5.7834 3.093-.1883 2.045 2.542 3.914 6.2273 4.25.2017.014.4169.027.6187.027zm5.7699-2.851c-.9952.592-3.4431 1.883-5.7565 1.883-.1883 0-.3631-.014-.538-.027-3.0262-.282-5.4741-1.748-5.3396-3.201.1211-1.264 2.1924-2.219 4.8151-2.219.3362 0 .6859.013 1.0221.054 2.4748.215 4.8824 2.542 5.7969 3.51z"/><path d="m71.9869 378.065c3.0397 0 6.039-1.6 6.16-1.668l.4708-.255-.2959-.444c-.1211-.175-2.8783-4.277-6.3484-4.963-.7666-.148-1.5333-.229-2.2596-.229-2.6765 0-4.5998.996-4.9091 2.542-.4035 2.018 2.1251 4.156 5.7431 4.883.4573.08.9414.134 1.4391.134zm5.2051-2.286c-.955.43-3.1069 1.304-5.2051 1.304-.4439 0-.8608-.04-1.2508-.121-2.9859-.592-5.2724-2.313-4.99-3.739.2018-1.035 1.8292-1.762 3.9543-1.762.6725 0 1.3719.068 2.0713.215 2.4613.498 4.6267 3.054 5.4203 4.103z"/><path d="m76.856 376.962 1.2643-.484v-.04c.0403-.014.0672-.041.1076-.054l.3766-.202-.148-.403c-.3766-.982-.7532-1.924-1.1029-2.784-4.3981-10.774-7.4646-14.432-7.5991-14.58l-.3228-.363-1.4526 1.251.3228.363c.0269.027 3.0666 3.672 7.3974 14.364.3363.821.6591 1.655.9819 2.488z"/></g><path d="m58.8197 410.506h295.3853c.821 0 1.48-.659 1.48-1.479 0-.821-.659-1.48-1.48-1.48h-295.3853c-.8205 0-1.4795.659-1.4795 1.48 0 .82.659 1.479 1.4795 1.479z" fill="#2c2858"/><g fill="#f7f9ff"><path d="m334.596 349.067c3.322 0 6.012-2.703 6.012-6.012 0-3.322-2.704-6.012-6.012-6.012-3.322 0-6.012 2.704-6.012 6.012 0 3.322 2.703 6.012 6.012 6.012zm0-10.787c2.636 0 4.775 2.139 4.775 4.775s-2.139 4.775-4.775 4.775-4.775-2.139-4.775-4.775 2.152-4.775 4.775-4.775z"/><path d="m317.44 356.787c-.052-1.998 1.524-3.66 3.522-3.712 1.997-.053 3.659 1.524 3.712 3.522.052 1.997-1.524 3.659-3.522 3.712-1.997.052-3.659-1.524-3.712-3.522z"/><path d="m69.472 327.978c0 1.99 1.614 3.618 3.618 3.618s3.618-1.614 3.618-3.618c0-1.991-1.614-3.618-3.618-3.618s-3.618 1.627-3.618 3.618z"/></g><path d="m154.502 407.601h146.846c2.313 0 4.183-1.87 4.183-4.183v-198.251c0-2.313-1.87-4.183-4.183-4.183h-146.832c-2.314 0-4.183 1.87-4.183 4.183v198.251c-.014 2.313 1.856 4.183 4.169 4.183z" fill="#8ea5ed"/><path d="m280.133 212.995 40.008 15.536-14.709 37.877-40.008-15.536z" fill="#f5a3b7"/><path d="m294.421 218.496v43.524l-2.488-.753v-43.739z" fill="#f291a9"/><path d="m158.591 398.657h106.416l24.815-17.808v-174.31h-131.231z" fill="#5f7fcf"/><path d="m160.582 397.083h106.415l24.815-17.66v-172.87h-131.23z" fill="#fff"/><path d="m266.997 397.164 24.802-17.74-16.463-3.336z" fill="#cdd8fa"/><path d="m291.799 379.424-26.792 19.219c0 .014 20.242-5.971 26.792-19.219z" fill="#5f7fcf"/><path d="m187.589 201.791v9.563c0 .996.807 1.789 1.789 1.789h73.033c.995 0 1.788-.807 1.788-1.789v-9.563c0-4.102-3.322-7.424-7.424-7.424h-61.762c-1.909 0-3.658.726-4.963 1.91-1.506 1.372-2.461 3.336-2.461 5.514z" fill="#f37a50"/><path d="m210.157 196.936h31.513c0-.874-.067-1.735-.215-2.569-1.224-7.478-7.72-13.194-15.548-13.194s-14.324 5.703-15.548 13.194c-.134.847-.202 1.695-.202 2.569z" fill="#f37a50"/><path d="m190.05 196.29 74.162 13.275v-7.774c0-4.102-3.322-7.424-7.424-7.424h-15.346c-1.224-7.478-7.72-13.194-15.548-13.194s-14.324 5.703-15.548 13.194h-15.333c-1.91.014-3.658.726-4.963 1.923z" fill="#de623c"/><path d="m221.2 189.673c0 2.596 2.112 4.708 4.708 4.708 2.595 0 4.707-2.112 4.707-4.708s-2.112-4.707-4.707-4.707c-2.61 0-4.708 2.111-4.708 4.707z" fill="#e3e9ff"/><path d="m260.635 261.993h22.219c.699 0 1.278-.565 1.278-1.278v-22.219c0-.699-.565-1.278-1.278-1.278h-22.219c-.7 0-1.278.565-1.278 1.278v22.219c.013.7.578 1.278 1.278 1.278zm20.955-2.556h-19.678v-19.663h19.678z" fill="#8ea5ed"/><path d="m274.004 260.433 11.903-13.8-4.223-3.631-7.72 8.944-15.737-17.888-4.183 3.685z" fill="#e62552"/><g fill="#cdd8fa"><path d="m197.743 238.886h51.257v4.573h-51.257z"/><path d="m166.634 238.886h27.612v4.573h-27.612z"/><path d="m219.585 247.965h29.415v4.573h-29.415z"/><path d="m184.521 257.043h64.479v4.573h-64.479z"/><path d="m166.633 247.965h49.643v4.573h-49.643z"/></g><path d="m260.635 312.659h22.219c.699 0 1.278-.565 1.278-1.278v-22.219c0-.7-.565-1.278-1.278-1.278h-22.219c-.7 0-1.278.565-1.278 1.278v22.219c.013.699.578 1.278 1.278 1.278zm20.955-2.556h-19.678v-19.677h19.678z" fill="#8ea5ed"/><path d="m274.004 311.112 11.903-13.8-4.223-3.645-7.72 8.944-15.737-17.888-4.183 3.685z" fill="#e62552"/><g fill="#cdd8fa"><path d="m176.976 288.92h72.024v4.572h-72.024z"/><path d="m203.513 297.998h45.487v4.573h-45.487z"/><path d="m231.098 307.077h17.902v4.573h-17.902z"/><path d="m167.01 307.077h61.17v4.573h-61.17z"/><path d="m167.01 297.998h32.804v4.573h-32.804z"/></g><path d="m260.635 363.109h22.219c.699 0 1.278-.565 1.278-1.278v-22.219c0-.699-.565-1.278-1.278-1.278h-22.219c-.7 0-1.278.565-1.278 1.278v22.219c.013.7.578 1.278 1.278 1.278zm20.955-2.556h-19.678v-19.677h19.678z" fill="#8ea5ed"/><path d="m274.004 361.549 11.903-13.8-4.223-3.631-7.72 8.944-15.737-17.888-4.183 3.685z" fill="#e62552"/><g fill="#cdd8fa"><path d="m226.902 339.168h22.098v4.573h-22.098z"/><path d="m167.225 339.168h57.229v4.573h-57.229z"/><path d="m189.242 348.247h59.758v4.573h-59.758z"/><path d="m211.004 357.325h37.996v4.573h-37.996z"/><path d="m178.98 357.325h29.482v4.573h-29.482z"/><path d="m167.01 348.247h18.816v4.573h-18.816z"/></g><path d="m108.329 270.587c.336-4.519 4.048-4.344 4.048-4.344 2.65-.134 13.517 4.977 20.216 9.24.134.081.255.162.39.242 1.129-5.447 5.756-13.974 6.348-18.547 0-.027.013-.054.013-.081 1.238 1.224 2.677 2.327 3.807 3.645-.095.148-.148.242-.148.256-1.224 4.25-1.803 20.726-5.703 23.375-2.73 1.857-24.277-8.029-24.277-8.029s-4.99-1.722-4.694-5.757z" fill="#f37a50"/><path d="m68.2628 238.147 116.4932 26.159-4.335 19.304-116.493-26.159z" fill="#b0173e"/><path d="m53.6276 255.16 10.3025 2.3 4.3175-19.314-10.3026-2.3c-3.6315-.82-7.2495 1.48-8.0565 5.111l-1.3719 6.147c-.8204 3.631 1.4661 7.249 5.111 8.056z" fill="#e62552"/><path d="m67.7496 238.025 9.2133 2.062-4.3269 19.333-9.2133-2.062z" fill="#f3c8b9"/><g fill="#f3ae9c"><path d="m63.8773 257.931.4035.094c.3094.067.6322-.134.6994-.444l4.2905-19.179c.0673-.309-.1345-.632-.4438-.7l-.4035-.094c-.3093-.067-.6321.135-.6994.444l-4.2905 19.18c-.0673.309.121.618.4438.699z"/><path d="m68.288 258.98.4035.094c.3093.068.6321-.134.6994-.444l4.3039-19.179c.0673-.309-.1345-.632-.4438-.699l-.4035-.095c-.3094-.067-.6322.135-.6994.444l-4.2905 19.18c-.0807.309.121.632.4304.699z"/><path d="m72.9425 259.975.4035.095c.3094.067.6322-.135.6994-.444l4.2905-19.18c.0673-.309-.1345-.632-.4438-.699l-.4035-.094c-.3094-.068-.6321.134-.6994.444l-4.2905 19.179c-.0672.309.121.619.4438.699z"/></g><path d="m179.963 273.385c1.197-5.326 3.322-9.388 4.761-9.079h.013c.135.041.269.121.391.229l14.472 8.783 10.302 6.254c.35.215.229.74-.175.793l-11.916 1.332-16.934 1.883c-.161.054-.309.081-.443.054h-.014-.013c-1.439-.337-1.628-4.923-.444-10.249z" fill="#f3c8b9"/><path d="m198.16 277.245c-.376 1.654-.47 3.215-.349 4.439l11.916-1.332c.404-.04.525-.578.175-.794l-10.302-6.254c-.579 1.049-1.103 2.408-1.44 3.941z" fill="#e62552"/><path d="m122.304 272.188c3.362-4.371 3.026-13.114.511-16.315-2.529-3.201-2.637-5.595-1.184-8.742 3.537-7.572-10.087-13.786-16.14-13.114-6.0522.673-17.8208 3.363-18.1571 12.28-.3362 8.917-.8473 9.415-4.8822 11.607-4.035 2.179-5.5548 9.079-4.035 12.28s6.8998 7.572 4.7074 11.096c-2.1923 3.524-4.8823 8.07-1.856 11.943 3.0262 3.874 6.2272 11.271 8.581 12.28 2.3537 1.009 9.5897.162 9.5897.162z" fill="#201d40"/><path d="m105.841 260.702-6.5234-.982.5246 6.052s3.3088 5.959 6.4428 4.923c3.133-1.022 1.6-3.658 1.6-3.658z" fill="#f37a50"/><path d="m96.5469 251.489c.2421 7.222 3.7521 11.741 9.4281 11.553s10.074-6.2 9.832-13.436c-.242-7.223-5.044-12.926-10.719-12.737-5.6763.201-8.7832 7.397-8.5411 14.62z" fill="#f37a50"/><path d="m104.159 249.592c.081-.013.162-.054.216-.121.847-.955 2.299-.767 2.313-.753.202.027.39-.108.417-.309.027-.202-.202-.606-.592-.619-.081 0-1.627-.215-2.73 1.049-.135.148-.081.538.067.672.081.068.202.108.309.081z" fill="#201d40"/><path d="m115.322 250.386c.04-.014.081-.027.107-.054.175-.108.216-.35.108-.511-.888-1.318-2.354-1.143-2.407-1.143-.202.026-.35.215-.323.417.027.201.215.349.417.322.053 0 1.076-.121 1.694.821.081.134.256.188.404.148z" fill="#201d40"/><path d="m110.4 252.928c.403.618.74 1.251 1.157 1.654.148.135.148.363.026.511-.524.619-1.788.955-2.542 1.103-.107.027-.161-.134-.067-.188.834-.471 1.224-.874 1.399-1.09.094-.107.121-.255.081-.39-.081-.309-.256-.955-.35-1.479-.04-.189.202-.283.296-.121z" fill="#de623c"/><path d="m105.114 257.756c-.121-.228.094-.497.35-.417.632.189 1.694.484 2.717.659 1.022.175 2.111.256 2.784.296.255.014.376.336.188.511-.578.552-1.722 1.345-3.295 1.076-1.574-.269-2.381-1.398-2.744-2.125z" fill="#fff"/><path d="m92.7271 250.722c6.6308.457 16.3419-5.972 17.7809-9.2-.417-4.317-3.47-7.061-7.613-5.958-4.1423 1.116-11.8626 9.496-10.1679 15.158z" fill="#201d40"/><path d="m108.799 243.042s3.47 4.439 7.344 5.81c-.861-4.815-1.453-8.46-3.712-9.872-2.26-1.412-4.869-1.91-4.869-1.91z" fill="#201d40"/><path d="m98.819 249.431c1.1029 1.291 1.1432 3.066.0941 3.981-1.0625.901-2.811.592-3.9139-.699-1.1029-1.292-1.1432-3.067-.0941-3.982 1.049-.901 2.7975-.591 3.9139.7z" fill="#f37a50"/><path d="m97.3536 252.766c.0538-.013.1076-.04.1479-.08.6456-.565.8474-1.318.538-1.991-.3093-.699-1.0625-1.143-1.7888-1.049-.2017.027-.3497.215-.3228.417s.2152.35.4169.323c.4035-.041.8474.228 1.0222.618.1749.377.0404.78-.3497 1.13-.1479.135-.1614.377-.0269.525.0807.107.2287.148.3632.107z" fill="#de623c"/><path d="m112.484 251.637c-.067.551.336 1.062.888 1.116.551.067 1.062-.336 1.116-.888.068-.551-.336-1.062-.887-1.116-.552-.067-1.05.323-1.117.888z" fill="#000"/><path d="m104.872 250.655c-.067.591.363 1.129.955 1.197.592.067 1.13-.363 1.197-.955.068-.592-.363-1.13-.955-1.197-.591-.067-1.129.349-1.197.955z" fill="#000"/><path d="m111.947 397.783c-.43-4.358 1.816-37.499 1.816-37.499 6.361-29.145 3.86-50.006 3.86-50.006l-10.922.767-4.303 16.462 2.044 27.505s-.767 2.112-1.17 3.806c-2.193 9.187-.014 20.148 1.345 27.465.632 3.389 1.6 10.504 1.627 12.132l-.861 2.744 13.289 6.496c-4.089-4.197-6.604-8.622-6.725-9.872z" fill="#f37a50"/><path d="m109.365 401.024c.887-2.596 2.851-2.905 2.851-2.905 3.887 5.42 13.221 1.964 13.006 9.348-14.27.067-20.202.228-20.202.228 0-1.695.242-5.729.552-7.303l.739.134z" fill="#201d40"/><path d="m108.248 312.39-15.387-2.126c-5.891 13.316-7.8009 36.503-9.4014 44.775-6.4156 10.76-8.4465 43.376-8.4465 43.376l-.8339 3.295 8.2313 5.124c2.6496-2.044-1.466-6.375-1.735-7.599-.4035-1.842 12.4545-38.023 12.4545-38.023l1.3719-3.429c15.6961-25.932 18.2781-45.528 18.2781-45.528z" fill="#f37a50"/><path d="m77.9722 402.342c.8877-2.596 2.8514-2.905 2.8514-2.905 3.887 5.42 13.2212 1.964 13.006 9.348-14.2703.067-20.2017.228-20.2017.228 0-1.694.2421-5.729.5515-7.303l.7397.134z" fill="#201d40"/><path d="m74.5428 349.538c1.5333-5.138 5.9717-37.955 19.5426-47.962l23.3486 2.461c5.394 8.729 6.564 25.676 7.25 46.55-21.789-8.42-20.404 9.563-50.1412-1.049z" fill="#201d40"/><path d="m117.716 298.281c0-5.111 4.425-12.778 2.314-17.929-1.547-4.156-4.587-13.517-7.895-14.149-1.345-.256-2.825 0-4.681-.511 0 0 .969 4.33-1.21 4.505-4.21.337-6.4293-5.057-6.4293-5.057-2.273-.215-10.1815 2.152-10.1815 3 .0269 6.698 2.9724 17.525 4.7478 24.774.3362 3.685.0672 6.55-.2959 8.635-.6725 2.179-1.493 3.416-1.5064 3.887 0 0 15.6023 5.299 25.5413-.161-.013-.014-.404-3.551-.404-6.994z" fill="#8ea5ed"/><g fill="#f37a50"><path d="m84.6706 304.884c1.8023 3.914 5.0168 3.444 5.9448 3.188 1.0088-.282 2.3806-.255 2.9052.444.538.713.8204 1.52 1.5333 1.264.9953-.349.0269-2.932-2.0175-3.039 0 0 1.614.053 2.1385.874.5784.887 1.0088 1.56 1.6275 1.466.3228-.054.6187-.417.5111-.861.3766.323 1.2508.605 1.3315-.013.2421-1.924-1.0895-4.425-3.8601-5.004 3.3086-.497 3.5507 2.448 4.5864 2.502.6187.027.6727-.74.5514-1.224-.4169-1.587-1.7216-2.798-3.3221-3.174-1.6005-.377-4.0484.081-4.9764 1.439 0 0-1.9368.699-2.7169-.484z"/><path d="m89.943 267.723s-11.123 6.509-16.5029 22.125c4.8419 5.366 8.9038 1.358 8.9038 1.358l10.7733-10.639s3.1607-3.887 1.6543-8.635c-1.3181-4.142-4.8285-4.209-4.8285-4.209z"/><path d="m88.8801 302.248-6.7114-10.504s-1.8427-4.371-8.729-1.896c-.3362 3.712.2018 7.168 11.3113 15.05 2.4076-.43 4.1291-2.65 4.1291-2.65z"/><path d="m89.9425 267.723s-11.123 6.509-16.5029 22.125c4.8419 5.366 9.3341.941 9.3341.941l10.3564-10.235s3.1608-3.887 1.6544-8.635c-1.3316-4.129-4.842-4.196-4.842-4.196z"/><path d="m142.384 254.205c-.108.027-.202.068-.296.122 0-.014 0-.041-.014-.054-.228-1.063-1.035-1.789-1.802-1.628-.121.027-.242.081-.35.148-.363-.592-.928-.928-1.479-.807-.215.054-.404.162-.565.323-.323-.619-.942-.982-1.547-.847-.767.161-1.224 1.035-1.022 1.95s.982 1.506 1.748 1.345c.189-.04.364-.135.511-.256.31.902 1.036 1.48 1.722 1.332.121-.027.242-.081.35-.148.363.592.928.928 1.479.807.202-.04.377-.148.525-.296.269.551.807.901 1.345.78.645-.134 1.035-.874.861-1.641-.162-.753-.821-1.264-1.466-1.13z"/></g></svg>