<svg fill="none" height="466" viewBox="0 0 428 466" width="428" xmlns="http://www.w3.org/2000/svg"><path d="m0 0h428v436c0 16.569-13.431 30-30 30h-368c-16.5685 0-30-13.431-30-30z" fill="#77cce0" fill-opacity=".24"/><path d="m31.4361 405.756h365.1279c.796 0 1.436 1.055 1.436 2.37s-.64 2.37-1.436 2.37h-365.1279c-.7959 0-1.4361-1.055-1.4361-2.37s.6402-2.37 1.4361-2.37z" fill="#f7cc7f"/><path d="m154.524 146.085 1.159-2.924-2.215-2.319 1.523-3.184-3.115-1.747 1.575-3.668-2.682-1.955.934-3.772 1.436.346-.692 2.82 2.821 2.059-1.506 3.53 3.167 1.782-1.679 3.512 2.146 2.25-1.056 2.716 1.731 1.177-.848 1.211z" fill="#50bfa5"/><g fill="#f7cc7f"><path d="m55.5899 304.503-1.3842-3.564-3.7199-.882c-.4326-.104-.5537-.641-.2077-.917l2.976-2.423-.3114-3.823c-.0346-.433.4498-.727.8132-.485l3.2182 2.076 3.5296-1.47c.398-.173.8305.207.7094.623l-.9862 3.702 2.4915 2.907c.2768.329.0692.848-.3633.865l-3.8238.208-1.9898 3.27c-.2422.38-.7959.329-.9516-.087z"/><path d="m76.9582 259.76c-1.8687-1.021-2.5434-3.374-1.5226-5.225 1.0208-1.869 3.3739-2.544 5.2252-1.523 1.8687 1.021 2.5435 3.374 1.5226 5.225-1.0208 1.852-3.3566 2.544-5.2252 1.523z"/><path d="m89.6403 260.141c-1.0728-.416-2.1455-.935-3.2528-1.212-.9517-.225-1.5053 1.142-.6229 1.627 1.0727.588 2.3185.934 3.4604 1.367.4672.173 1.0035-.243 1.1074-.675.1211-.536-.225-.917-.6921-1.107z"/><path d="m89.2082 252.009c-1.3323.674-2.7164 1.09-4.1006 1.609-1.09.398-.6056 1.886.4845 1.695 1.5918-.277 3.1316-.969 4.5677-1.695.4499-.225.571-.865.3288-1.281-.2769-.467-.8305-.553-1.2804-.328z"/><path d="m82.0967 250.313c.0346.363.2941.606.6575.623.8997.069 1.4534-.883 1.8513-1.557.4153-.692.7094-1.471.917-2.267.2942-1.159-1.5226-1.609-1.8167-.433-.571 2.302-1.7302 2.561-1.6091 3.634z"/><path d="m75.1241 247.285c.7786 1.834.744 2.907 1.5745 3.27.4845.208.9343 0 1.1074-.484.2076-.589-.1558-1.194-.3288-1.748-.173-.519-.346-1.038-.5709-1.557-.1904-.467-.6229-.779-1.1593-.64-.4152.138-.8132.692-.6229 1.159z"/><path d="m72.5287 250.797c-1.0381-.242-1.3842-.363-2.0244-.225-.5536.122-.7959.987-.3287 1.35.5364.433.8305.45 1.9205.692.4845.121 1.0036-.19 1.1247-.692.1211-.484-.2076-1.004-.6921-1.125z"/><path d="m71.9925 256.075c-1.9033.692-2.3704.778-2.6646 1.349-.173.329-.0865.883.2942 1.038.7267.294 1.1592.035 2.8721-.64.4672-.173.7613-.623.6229-1.125-.1211-.449-.6575-.795-1.1246-.622z"/><path d="m73.221 264.587c-.0692.727 1.0035 1.108 1.4534.571.4325-.502.4844-.778 1.7302-3.806.1903-.467.1038-1.004-.3634-1.263-.3979-.225-1.0727-.104-1.263.363-1.315 3.132-1.5053 3.409-1.5572 4.135z"/><path d="m80.3494 263.203c.4845 2.405.0865 2.457.5883 3.599.2249.519 1.142.502 1.3669-.017.2768-.675.2768-.9.1557-2.059-.0692-.675-.173-1.367-.3114-2.042-.1039-.502-.7094-.779-1.1593-.64-.5191.138-.744.657-.6402 1.159z"/></g><path d="m67.3555 327.273-3.1836 1.817 1.0208 2.509-3.0798 1.903.6229 2.578-2.1455 1.713.744.83 2.8549-2.301-.5883-2.457 3.2009-1.972-1.0035-2.475 2.8894-1.643z" fill="#86b1f2"/><g fill="#f48c7f"><path d="m112.41 150.652s-.45-1.626.779-3.166c1.09-1.384 2.924-1.471 4.204-.45 1.471 1.159 2.198 3.841 1.073 8.392-4.17 2.163-6.938 2.076-8.409.917-1.28-1.004-1.626-2.82-.536-4.205 1.211-1.557 2.889-1.488 2.889-1.488z"/><path d="m104.001 162.504c1.28-1.159 2.232-2.162 3.132-3.201.294-.346.917-.847.83-1.332-.052-.259-.207-.432-.484-.432-.502 0-.831.605-1.142.951-.917 1.038-1.99 2.18-3.167 3.27-.224.208-.173.589.035.779.26.208.588.173.796-.035z"/><path d="m121.943 147.434c.45-.484.883-.986 1.315-1.488.416-.484 1.004-.969 1.229-1.557.173-.433-.243-.865-.675-.623-.554.312-.969.934-1.384 1.419-.433.502-.883 1.003-1.298 1.505-.467.554.329 1.281.813.744z"/><path d="m114.573 163.646c-.502-1.54-.156-2.595-.035-3.529.052-.502-.554-.727-.83-.294-.762 1.193-.606 2.889-.173 4.169.207.658 1.245.329 1.038-.346z"/><path d="m122.255 160.22c-.536-.432-.969-.951-1.28-1.574-.191-.381-.485-1.696-1.16-1.246-.622.415.018 1.523.277 1.99.364.623.848 1.194 1.402 1.644.571.45 1.315-.364.761-.814z"/><path d="m122.843 153.23c.45-.103.883-.19 1.333-.294.449-.103.968-.103 1.211-.536.138-.242 0-.502-.208-.64-.381-.26-.969.017-1.367.104-.45.103-.882.207-1.332.311-.294.069-.45.433-.363.709.121.312.432.416.726.346z"/><path d="m106.354 151.379c-3.477-1.194-3.46-1.211-3.858-1.194-.415.035-.623.554-.294.831.311.277.259.225 3.927 1.453.295.104.623-.156.675-.432.052-.312-.173-.554-.45-.658z"/><path d="m110.316 146.811c-.276-.536-.605-1.038-.986-1.505-.363-.433-.848-1.142-1.47-1.021-.139.035-.277.191-.295.312-.069.571.554.986.883 1.401.363.433.675.917.951 1.402.139.259.519.311.762.155.277-.155.294-.467.155-.744z"/><path d="m116.389 140.79c-.121-.242-.45-.259-.657-.138-.433.225-.502.969-.588 1.401-.104.502-.139 1.021-.156 1.54 0 .294.311.537.588.519.329-.017.502-.277.519-.588.121-1.955.606-2.146.294-2.734z"/></g><path d="m75.072 200.085 4.3601 3.633-1.6956 5.52-1.4534-.433 1.4015-4.568-4.4986-3.754 2.9068-5.883-3.3047-2.111.917-1.211 4.3428 2.786z" fill="#f7cc7f"/><path d="m48.3922 238.807c2.4223 2.024 6.2807.64 7.6995-1.921 1.5571-2.82.8132-6.54-1.5918-8.633-2.5954-2.284-6.0039-2.025-7.9417.501-1.886 2.475-.6402 5.624 2.18 6.368 2.0244.536 3.6335-.589 3.6681-1.661.0346-.831-.8997-1.385-1.5399-.762-.2595.243-.2768.658-.1557.952-.6575.467-2.2147.329-3.2009-.882-1.2631-1.558-.0519-3.634 1.5053-4.413 1.9724-.986 4.1698.07 5.4328 1.713 1.315 1.713 1.5745 4.257.5364 6.16-1.1765 2.163-3.9449 2.959-6.1077 1.799-.519-.242-.917.416-.4844.779z" fill="#86b1f2"/><path d="m110.593 195.742 2.509 7.111 6.852-7.44z" fill="#96d9c9"/><path d="m145.042 182.108c1.177 3.772 5.174 5.865 8.945 4.689 3.772-1.177 5.866-5.174 4.689-8.946-1.176-3.771-5.173-5.865-8.945-4.688-3.772 1.176-5.865 5.173-4.689 8.945z" fill="#f7cc7f"/><path d="m155.839 179.928c.623 2.007-.502 4.152-2.509 4.775s-4.152-.502-4.775-2.509z" fill="#efefef"/><path d="m203.679 122.433.9 2.301-3.53 1.851.9 3.53-2.422 1.816.934 1.229 3.236-2.44-.865-3.339 3.685-1.938-1.367-3.443z" fill="#466eb6"/><path d="m288.754 178.907.744-1.851c-.813-.381-1.575-.866-2.163-1.35-.484-.415-.571-1.125-.19-1.644l.052-.069c.415-.571 1.228-.657 1.764-.208.537.468 1.194.9 1.956 1.212 1.107.449 2.041.328 2.353-.45.294-.744-.139-1.454-1.384-2.526-1.8-1.54-2.821-3.08-2.059-4.966.692-1.713 2.439-2.561 4.671-2.128l.744-1.852 1.903.762-.692 1.713c.692.311 1.229.64 1.679.969.536.397.64 1.141.242 1.678-.398.553-1.194.657-1.73.225-.398-.312-.917-.658-1.609-.935-1.264-.501-1.886-.121-2.111.416-.26.64.259 1.315 1.661 2.612 1.989 1.748 2.491 3.201 1.782 4.949-.692 1.73-2.509 2.716-4.914 2.197l-.796 1.99z" fill="#96d9c9"/><path d="m123.57 240.243c.225.381.173.865-.156 1.159-.64.589-1.643 1.263-2.872 1.731-1.799.674-3.789.744-5.588-.07-1.125-.501-2.146-1.436-2.873-2.612l-1.055.398c-.363.138-.761-.052-.9-.416l-.017-.034c-.138-.364.052-.762.415-.9l.865-.329c-.138-.294-.242-.467-.294-.64-.104-.277-.19-.605-.277-.986l-.899.329c-.364.138-.762-.052-.9-.416-.139-.363.052-.761.415-.899l1.09-.416c-.173-1.366.018-2.699.519-3.823.865-1.904 2.492-3.27 4.378-3.98 1.09-.415 1.989-.536 2.716-.536.502 0 .934.398.952.9v.017c.017.519-.381.969-.917.986-.589.017-1.298.138-2.111.45-1.194.45-2.249 1.28-2.855 2.561-.346.744-.502 1.643-.311 2.543l6.125-2.301c.363-.139.761.052.899.415.139.363-.052.761-.415.9l-6.402 2.405c.087.311.173.623.242.813.087.242.191.484.329.813l6.402-2.405c.363-.138.779.052.917.415.138.364-.052.779-.415.917l-6.142 2.302c.484.709 1.124 1.263 1.799 1.557 1.332.588 2.561.554 3.928.052.83-.312 1.522-.744 2.041-1.159.45-.329 1.09-.208 1.367.259z" fill="#86b1f2"/><g fill="#f7cc7f"><path d="m267.109 148.092.536-2.63 2.457-1.056c.277-.121.295-.501.035-.657l-2.336-1.315-.242-2.665c-.035-.311-.398-.45-.623-.242l-1.972 1.817-2.613-.606c-.294-.069-.536.242-.415.519l1.107 2.44-1.384 2.301c-.156.26.052.588.363.554l2.665-.312 1.765 2.025c.225.242.605.138.657-.173z"/><path d="m241.727 127.779-.277-1.869 1.384-1.28c.156-.138.087-.415-.138-.45l-1.852-.311-.795-1.713c-.087-.191-.364-.208-.468-.018l-.882 1.661-1.869.225c-.207.018-.311.277-.155.433l1.315 1.35-.364 1.851c-.034.207.173.38.364.277l1.695-.831 1.644.917c.19.139.432-.017.398-.242z"/><path d="m188.246 147.849-.277-1.868 1.384-1.281c.156-.138.087-.415-.138-.449l-1.852-.312-.795-1.713c-.087-.19-.364-.207-.468-.017l-.882 1.661-1.869.225c-.207.017-.311.277-.155.432l1.315 1.35-.364 1.851c-.034.208.173.381.364.277l1.695-.83 1.644.917c.208.138.432-.018.398-.243z"/></g><path d="m255.084 173.837-1.159-1.159c-.208-.208-.554-.208-.762 0l-1.159 1.159c-.208.208-.554.208-.761 0l-1.159-1.159c-.208-.208-.554-.208-.762 0l-1.159 1.159c-.208.208-.554.208-.761 0l-1.16-1.159c-.207-.208-.553-.208-.761 0l-1.159 1.159c-.208.208-.554.208-.761 0l-1.16-1.159c-.207-.208-.553-.208-.761 0l-1.159 1.159c-.208.208-.554.208-.761 0l-1.16-1.159c-.207-.208-.553-.208-.761 0l-1.159 1.159c-.208.208-.554.208-.762 0l-1.159-1.159c-.207-.208-.553-.208-.761 0l-1.159 1.159c-.208.208-.554.208-.762 0l-1.159-1.159c-.208-.208-.554-.208-.761 0l-1.159 1.159c-.208.208-.554.208-.762 0l-1.159-1.159c-.208-.208-.554-.208-.761 0l-1.16 1.159c-.207.208-.553.208-.761 0l-1.159-1.159c-.208-.208-.554-.208-.761 0l-1.16 1.159c-.207.208-.553.208-.761 0l-1.159-1.159c-.208-.208-.554-.208-.761 0l-1.16 1.159c-.207.208-.553.208-.761 0l-1.159-1.159c-.208-.208-.554-.208-.762 0l-1.159 1.159c-.207.208-.553.208-.761 0l-1.159-1.159c-.208-.208-.554-.208-.762 0l-1.159 1.159c-.207.208-.554.208-.761 0l-1.159-1.159c-.208-.208-.554-.208-.762 0l-1.159 1.159c-.208.208-.554.208-.761 0l-1.159-1.159c-.208-.208-.554-.208-.762 0l-1.159 1.159c-.208.208-.554.208-.761 0l-1.16-1.159c-.207-.208-.553-.208-.761 0l-1.159 1.159c-.208.208-.554.208-.761 0l-1.16-1.159c-.207-.208-.553-.208-.761 0l-1.159 1.159c-.208.208-.554.208-.761 0l-1.16-1.159c-.207-.208-.553-.208-.761 0l-1.159 1.159c-.208.208-.554.208-.762 0l-1.159-1.159c-.207-.208-.553-.208-.761 0l-1.159 1.159c-.208.208-.554.208-.762 0l-1.159-1.159c-.208-.208-.554-.208-.761 0-.104.104-.156.242-.156.381l-.432 93.899 73.932.225.328-94.92-1.539 1.54c-.519.242-.866.242-1.073.034z" fill="#f7f7f7"/><path d="m183.131 268.917 73.932-.032-.002-3.547-73.932.032z" fill="#e3e3e3"/><path d="m198.903 254.414 42.979-.018c1.211 0 2.197.986 2.197 2.18 0 1.211-.986 2.198-2.18 2.198l-42.978.017c-1.212 0-2.198-.986-2.198-2.18 0-1.211.969-2.197 2.18-2.197z" fill="#d4d4d4"/><g fill="#e0e0e0"><path d="m221.085 245.468 29.05-.017c.848 0 1.523.675 1.523 1.523 0 .847-.675 1.522-1.523 1.522l-29.05.018c-.848 0-1.523-.675-1.523-1.523s.675-1.523 1.523-1.523z"/><path d="m221.085 237.094 29.05-.017c.848 0 1.523.675 1.523 1.522 0 .848-.675 1.523-1.523 1.523l-29.05.017c-.848 0-1.523-.675-1.523-1.522 0-.848.675-1.523 1.523-1.523z"/><path d="m221.068 229.585 29.05-.017c.848 0 1.522.674 1.522 1.522s-.674 1.523-1.522 1.523l-29.05.017c-.848 0-1.523-.675-1.523-1.522.017-.848.692-1.523 1.523-1.523z"/><path d="m203.16 218.114 34.206-.018c.606 0 1.09.485 1.09 1.09 0 .606-.484 1.09-1.09 1.09l-34.206.018c-.606 0-1.09-.485-1.09-1.09 0-.606.484-1.09 1.09-1.09z"/><path d="m195.858 213.736 48.81-.017c.605 0 1.09.484 1.09 1.09 0 .605-.485 1.09-1.09 1.09l-48.81.017c-.605 0-1.09-.484-1.09-1.09 0-.605.485-1.09 1.09-1.09z"/><path d="m190.668 245.468h7.959c.847 0 1.522.675 1.522 1.523s-.675 1.523-1.522 1.523h-7.959c-.848 0-1.523-.675-1.523-1.523 0-.831.675-1.523 1.523-1.523z"/><path d="m190.651 237.094h7.959c.847 0 1.522.675 1.522 1.523 0 .847-.675 1.522-1.522 1.522h-7.959c-.848 0-1.523-.675-1.523-1.522.017-.831.692-1.523 1.523-1.523z"/><path d="m190.651 229.585h7.959c.847 0 1.522.675 1.522 1.523 0 .847-.675 1.522-1.522 1.522h-7.959c-.848 0-1.523-.675-1.523-1.522 0-.831.692-1.523 1.523-1.523z"/></g><path d="m191.896 203.026 56.959-.017c1.523 0 2.768 1.246 2.768 2.768 0 1.523-1.245 2.769-2.768 2.769l-56.959.017c-1.522 0-2.768-1.246-2.768-2.769 0-1.522 1.228-2.768 2.768-2.768z" fill="#d4d4d4"/><path d="m205.323 194.15 30.088-.017c.952 0 1.713.761 1.713 1.713 0 .951-.761 1.713-1.713 1.713l-30.088.017c-.952 0-1.713-.761-1.713-1.713s.778-1.713 1.713-1.713z" fill="#d4d4d4"/><path d="m263.423 407.451-86.268.035c-5.243 0-9.499-4.239-9.499-9.482l-.052-128.174c0-5.243 4.239-9.499 9.482-9.499l86.268-.035c5.243 0 9.499 4.239 9.499 9.482l.052 128.174c.017 5.243-4.239 9.482-9.482 9.499z" fill="#9bc1f9"/><path d="m269.548 262.615c1.436 1.661 2.336 3.806 2.336 6.177l.052 128.174c0 5.243-4.239 9.499-9.482 9.499l-86.268.035c-2.371 0-4.516-.9-6.177-2.336 1.747 2.007 4.291 3.305 7.146 3.305l86.268-.035c5.243 0 9.482-4.256 9.482-9.499l-.052-128.174c0-2.855-1.298-5.399-3.305-7.146z" fill="#ababab"/><path d="m259.755 320.248h-78.984c-1.453 0-2.63-1.176-2.63-2.63v-43.601c0-1.453 1.177-2.63 2.63-2.63h78.984c1.454 0 2.63 1.177 2.63 2.63v43.601c0 1.454-1.176 2.63-2.63 2.63z" fill="#82a2d1"/><path d="m178.712 318.137v-43.601c0-1.453 1.177-2.63 2.63-2.63h78.985c.536 0 1.02.156 1.436.433-.485-.571-1.211-.952-2.025-.952h-78.984c-1.453 0-2.63 1.177-2.63 2.63v43.601c0 .917.467 1.731 1.194 2.198-.381-.45-.606-1.038-.606-1.679z" fill="#638ac2"/><path d="m250.17 293.914h-59.831c-1.747 0-3.183-1.418-3.183-3.183v-10.208c0-1.748 1.419-3.184 3.183-3.184h59.831c1.748 0 3.184 1.419 3.184 3.184v10.208c0 1.747-1.419 3.183-3.184 3.183z" fill="#3f7885"/><path d="m187.709 291.267v-10.208c0-1.748 1.419-3.184 3.184-3.184h59.831c.744 0 1.419.26 1.955.675-.588-.744-1.488-1.211-2.492-1.211h-59.831c-1.747 0-3.183 1.419-3.183 3.184v10.208c0 1.021.467 1.92 1.211 2.491-.433-.536-.675-1.211-.675-1.955z" fill="#33464a"/><path d="m200.289 338.623h-17.51c-1.402 0-2.544-1.142-2.544-2.543v-7.682c0-1.402 1.142-2.544 2.544-2.544h17.51c1.401 0 2.543 1.142 2.543 2.544v7.682c.017 1.401-1.125 2.543-2.543 2.543z" fill="#c2c2c2"/><path d="m199.389 337.654h-17.51c-1.402 0-2.544-1.142-2.544-2.543v-7.682c0-1.402 1.142-2.544 2.544-2.544h17.51c1.401 0 2.543 1.142 2.543 2.544v7.682c0 1.401-1.142 2.543-2.543 2.543z" fill="#5a818c"/><path d="m180.235 335.993v-7.543c0-1.454 1.107-2.613 2.491-2.613h17.631c.45 0 .848.156 1.229.381-.433-.779-1.194-1.333-2.111-1.333h-17.631c-1.367 0-2.491 1.177-2.491 2.613v7.544c0 .969.519 1.782 1.263 2.232-.225-.381-.381-.796-.381-1.281z" fill="#3b3b3b"/><path d="m200.306 356.808h-17.51c-1.402 0-2.544-1.142-2.544-2.544v-7.682c0-1.401 1.142-2.543 2.544-2.543h17.51c1.401 0 2.543 1.142 2.543 2.543v7.682c0 1.402-1.142 2.544-2.543 2.544z" fill="#c2c2c2"/><path d="m199.406 355.856h-17.51c-1.402 0-2.543-1.142-2.543-2.543v-7.682c0-1.402 1.141-2.544 2.543-2.544h17.51c1.401 0 2.543 1.142 2.543 2.544v7.682c0 1.401-1.142 2.543-2.543 2.543z" fill="#5a818c"/><path d="m180.235 354.195v-7.544c0-1.453 1.107-2.612 2.491-2.612h17.631c.45 0 .848.156 1.229.38-.433-.778-1.194-1.332-2.111-1.332h-17.631c-1.367 0-2.491 1.177-2.491 2.613v7.544c0 .969.519 1.782 1.263 2.232-.225-.381-.381-.814-.381-1.281z" fill="#3b3b3b"/><path d="m200.306 375.01h-17.51c-1.402 0-2.544-1.142-2.544-2.544v-7.682c0-1.401 1.142-2.543 2.544-2.543h17.51c1.401 0 2.543 1.142 2.543 2.543v7.682c.017 1.402-1.125 2.544-2.543 2.544z" fill="#c2c2c2"/><path d="m199.406 374.058h-17.51c-1.402 0-2.543-1.142-2.543-2.543v-7.682c0-1.402 1.141-2.544 2.543-2.544h17.51c1.401 0 2.543 1.142 2.543 2.544v7.682c0 1.384-1.142 2.526-2.543 2.543z" fill="#5a818c"/><path d="m180.252 372.38v-7.544c0-1.453 1.107-2.613 2.492-2.613h17.63c.45 0 .848.156 1.229.381-.433-.779-1.194-1.332-2.111-1.332h-17.631c-1.367 0-2.491 1.176-2.491 2.612v7.544c0 .969.519 1.782 1.263 2.232-.225-.38-.381-.796-.381-1.28z" fill="#3b3b3b"/><path d="m229.304 338.606h-17.51c-1.401 0-2.543-1.142-2.543-2.543v-7.683c0-1.401 1.142-2.543 2.543-2.543h17.51c1.402 0 2.544 1.142 2.544 2.543v7.683c.017 1.401-1.125 2.543-2.544 2.543z" fill="#c2c2c2"/><path d="m228.404 337.654h-17.509c-1.402 0-2.544-1.142-2.544-2.543v-7.682c0-1.402 1.142-2.544 2.544-2.544h17.509c1.402 0 2.544 1.142 2.544 2.544v7.682c0 1.401-1.142 2.543-2.544 2.543z" fill="#5a818c"/><path d="m209.251 335.976v-7.544c0-1.453 1.107-2.612 2.491-2.612h17.631c.45 0 .848.155 1.228.38-.432-.778-1.193-1.332-2.11-1.332h-17.631c-1.367 0-2.492 1.177-2.492 2.613v7.543c0 .969.519 1.783 1.263 2.232-.225-.363-.38-.795-.38-1.28z" fill="#3b3b3b"/><path d="m229.321 356.791h-17.51c-1.401 0-2.543-1.142-2.543-2.544v-7.682c0-1.402 1.142-2.543 2.543-2.543h17.51c1.402 0 2.544 1.141 2.544 2.543v7.682c0 1.402-1.142 2.544-2.544 2.544z" fill="#c2c2c2"/><path d="m228.404 355.839h-17.509c-1.402 0-2.544-1.142-2.544-2.543v-7.683c0-1.401 1.142-2.543 2.544-2.543h17.509c1.402 0 2.544 1.142 2.544 2.543v7.683c.017 1.401-1.125 2.543-2.544 2.543z" fill="#5a818c"/><path d="m209.251 354.178v-7.544c0-1.453 1.107-2.612 2.491-2.612h17.631c.45 0 .848.155 1.228.38-.432-.778-1.193-1.332-2.11-1.332h-17.631c-1.367 0-2.492 1.176-2.492 2.613v7.543c0 .969.519 1.782 1.263 2.232-.225-.38-.38-.796-.38-1.28z" fill="#3b3b3b"/><path d="m229.322 374.992h-17.51c-1.402 0-2.543-1.141-2.543-2.543v-7.682c0-1.402 1.141-2.544 2.543-2.544h17.51c1.401 0 2.543 1.142 2.543 2.544v7.682c.017 1.402-1.124 2.543-2.543 2.543z" fill="#c2c2c2"/><path d="m228.422 374.041h-17.51c-1.401 0-2.543-1.142-2.543-2.544v-7.682c0-1.401 1.142-2.543 2.543-2.543h17.51c1.401 0 2.543 1.142 2.543 2.543v7.682c0 1.402-1.142 2.544-2.543 2.544z" fill="#5a818c"/><path d="m209.269 372.38v-7.544c0-1.453 1.107-2.613 2.491-2.613h17.631c.45 0 .848.156 1.229.381-.433-.779-1.194-1.332-2.111-1.332h-17.631c-1.367 0-2.492 1.176-2.492 2.612v7.544c0 .969.519 1.782 1.263 2.232-.225-.38-.38-.813-.38-1.28z" fill="#3b3b3b"/><path d="m229.339 393.177h-17.51c-1.401 0-2.543-1.142-2.543-2.543v-7.683c0-1.401 1.142-2.543 2.543-2.543h17.51c1.401 0 2.543 1.142 2.543 2.543v7.683c0 1.401-1.142 2.543-2.543 2.543z" fill="#c2c2c2"/><path d="m228.422 392.225h-17.51c-1.401 0-2.543-1.142-2.543-2.543v-7.682c0-1.402 1.142-2.544 2.543-2.544h17.51c1.401 0 2.543 1.142 2.543 2.544v7.682c.018 1.401-1.124 2.543-2.543 2.543z" fill="#f7cc7f"/><path d="m209.269 390.564v-7.543c0-1.454 1.107-2.613 2.491-2.613h17.631c.45 0 .848.156 1.229.381-.433-.779-1.194-1.333-2.111-1.333h-17.631c-1.367 0-2.492 1.177-2.492 2.613v7.544c0 .969.519 1.782 1.263 2.232-.225-.381-.38-.796-.38-1.281z" fill="#3b3b3b"/><path d="m258.32 338.589h-17.51c-1.401 0-2.543-1.142-2.543-2.544v-7.682c0-1.401 1.142-2.543 2.543-2.543h17.51c1.401 0 2.543 1.142 2.543 2.543v7.682c.018 1.402-1.124 2.544-2.543 2.544z" fill="#c2c2c2"/><path d="m257.42 337.637h-17.51c-1.401 0-2.543-1.142-2.543-2.543v-7.683c0-1.401 1.142-2.543 2.543-2.543h17.51c1.401 0 2.543 1.142 2.543 2.543v7.683c0 1.401-1.142 2.543-2.543 2.543z" fill="#5a818c"/><path d="m238.267 335.976v-7.544c0-1.453 1.107-2.612 2.491-2.612h17.631c.45 0 .848.155 1.229.38-.433-.778-1.194-1.332-2.111-1.332h-17.631c-1.367 0-2.492 1.177-2.492 2.613v7.543c0 .969.519 1.783 1.263 2.232-.225-.38-.38-.813-.38-1.28z" fill="#3b3b3b"/><path d="m202.572 313.985h-17.596c-.9 0-1.627-.727-1.627-1.626v-2.354c0-.899.727-1.626 1.627-1.626h17.596c.9 0 1.626.727 1.626 1.626v2.354c-.017.899-.726 1.626-1.626 1.626z" fill="#d4d4d4"/><path d="m201.742 313.57h-17.597c-.899 0-1.626-.727-1.626-1.627v-2.353c0-.899.727-1.626 1.626-1.626h17.597c.899 0 1.626.727 1.626 1.626v2.353c-.017.9-.744 1.627-1.626 1.627z" fill="#486670"/><path d="m229.304 313.968h-17.596c-.9 0-1.626-.727-1.626-1.627v-2.353c0-.9.726-1.626 1.626-1.626h17.596c.9 0 1.627.726 1.627 1.626v2.353c0 .9-.727 1.627-1.627 1.627z" fill="#d4d4d4"/><path d="m228.474 313.552h-17.597c-.899 0-1.626-.726-1.626-1.626v-2.353c0-.9.727-1.626 1.626-1.626h17.597c.899 0 1.626.726 1.626 1.626v2.353c0 .9-.727 1.626-1.626 1.626z" fill="#486670"/><path d="m256.053 313.968h-17.596c-.9 0-1.626-.727-1.626-1.627v-2.353c0-.9.726-1.626 1.626-1.626h17.596c.9 0 1.627.726 1.627 1.626v2.353c-.018.9-.744 1.627-1.627 1.627z" fill="#d4d4d4"/><path d="m255.206 313.552h-17.597c-.899 0-1.626-.726-1.626-1.626v-2.353c0-.9.727-1.626 1.626-1.626h17.597c.899 0 1.626.726 1.626 1.626v2.353c0 .9-.727 1.609-1.626 1.626z" fill="#486670"/><path d="m258.337 356.791h-17.51c-1.401 0-2.543-1.142-2.543-2.544v-7.682c0-1.402 1.142-2.543 2.543-2.543h17.51c1.401 0 2.543 1.141 2.543 2.543v7.682c0 1.402-1.142 2.544-2.543 2.544z" fill="#c2c2c2"/><path d="m257.42 355.839h-17.51c-1.401 0-2.543-1.142-2.543-2.543v-7.683c0-1.401 1.142-2.543 2.543-2.543h17.51c1.401 0 2.543 1.142 2.543 2.543v7.683c.018 1.384-1.124 2.526-2.543 2.543z" fill="#5a818c"/><path d="m238.267 354.161v-7.544c0-1.454 1.107-2.613 2.491-2.613h17.631c.45 0 .848.156 1.229.381-.433-.779-1.194-1.332-2.111-1.332h-17.631c-1.367 0-2.492 1.176-2.492 2.612v7.544c0 .969.519 1.782 1.263 2.232-.225-.381-.38-.796-.38-1.28z" fill="#3b3b3b"/><path d="m258.337 374.975h-17.51c-1.401 0-2.543-1.142-2.543-2.543v-7.682c0-1.402 1.142-2.544 2.543-2.544h17.51c1.401 0 2.543 1.142 2.543 2.544v7.682c.018 1.401-1.124 2.543-2.543 2.543z" fill="#c2c2c2"/><path d="m257.438 374.024h-17.51c-1.402 0-2.544-1.142-2.544-2.544v-7.682c0-1.402 1.142-2.543 2.544-2.543h17.51c1.401 0 2.543 1.141 2.543 2.543v7.682c0 1.402-1.142 2.544-2.543 2.544z" fill="#5a818c"/><path d="m238.284 372.363v-7.544c0-1.454 1.107-2.613 2.491-2.613h17.631c.45 0 .848.156 1.229.381-.433-.779-1.194-1.332-2.111-1.332h-17.631c-1.367 0-2.492 1.176-2.492 2.612v7.544c0 .969.519 1.782 1.263 2.232-.224-.381-.38-.813-.38-1.28z" fill="#3b3b3b"/><path d="m200.323 393.194h-17.51c-1.402 0-2.543-1.142-2.543-2.543v-7.682c0-1.402 1.141-2.544 2.543-2.544h17.51c1.401 0 2.543 1.142 2.543 2.544v7.682c0 1.401-1.142 2.543-2.543 2.543z" fill="#c2c2c2"/><path d="m199.406 392.243h-17.51c-1.402 0-2.543-1.142-2.543-2.544v-7.682c0-1.401 1.141-2.543 2.543-2.543h17.51c1.401 0 2.543 1.142 2.543 2.543v7.682c.017 1.402-1.124 2.544-2.543 2.544z" fill="#f47458"/><path d="m180.252 390.582v-7.544c0-1.453 1.107-2.613 2.492-2.613h17.63c.45 0 .848.156 1.229.381-.433-.779-1.194-1.332-2.111-1.332h-17.631c-1.367 0-2.491 1.176-2.491 2.612v7.544c0 .969.519 1.782 1.263 2.232-.225-.381-.381-.813-.381-1.28z" fill="#3b3b3b"/><path d="m258.354 393.177h-17.509c-1.402 0-2.544-1.142-2.544-2.543v-7.683c0-1.401 1.142-2.543 2.544-2.543h17.509c1.402 0 2.544 1.142 2.544 2.543v7.683c0 1.401-1.142 2.543-2.544 2.543z" fill="#c2c2c2"/><path d="m257.438 392.225h-17.51c-1.402 0-2.544-1.142-2.544-2.543v-7.682c0-1.402 1.142-2.544 2.544-2.544h17.51c1.401 0 2.543 1.142 2.543 2.544v7.682c.017 1.401-1.125 2.543-2.543 2.543z" fill="#50bfa5"/><path d="m238.284 390.547v-7.544c0-1.453 1.107-2.612 2.491-2.612h17.631c.45 0 .848.155 1.229.38-.433-.778-1.194-1.332-2.111-1.332h-17.631c-1.367 0-2.492 1.177-2.492 2.613v7.543c0 .969.519 1.783 1.263 2.232-.224-.38-.38-.795-.38-1.28z" fill="#3b3b3b"/><path d="m300.762 283.931-.485.433c-.242.225-.623.207-.83-.018l-8.478-9.36c-.208-.225-.191-.606.069-.813l.484-.433c.243-.225.623-.208.831.017l8.478 9.361c.208.225.19.588-.069.813z" fill="#13375b"/><path d="m329.518 276.335c-1.142-.917-9.897 2.942-9.793 4.274s-6.125 14.378-6.125 14.378l-10.762-8.616c-.086-.312-1.107-3.668-1.159-4.257-.052-.623-1.869-1.73-2.717-1.574-.847.156.727 1.228.831 1.419.277.536-.796.726-.796.726s-3.114-1.713-3.184-2.716c-.069-1.004-.709-3.115-1.384-2.682-.346.225-.346 1.73-.242 2.44-.208-.814-.484-1.713-.761-1.8-.502-.173-.762.485-.658.796.087.312.9 3.737 1.142 4.118s5.26 4.429 5.987 5.312c0 0 13.928 15.97 14.914 16.385.865.363 3.98-5.139 6.904-8.79 2.941-3.633 11.35-16.523 7.803-19.413z" fill="#f7a491"/><path d="m357.617 393.765s1.92 1.869 1.955 2.561c.034.692.173 8.045-.606 8.738-.778.692-3.08 1.176-2.336 1.955.554.588 4.845.467 7.683.294.83-.052 1.868-6.696 2.197-7.665.484-1.419 1.644-4.62 1.211-5.606-.207-.484-1.228-1.471-2.647-2.388-1.505-.969-2.941-3.131-2.941-3.131z" fill="#f48c7f"/><path d="m337.806 398.125s1.713 4.845 1.713 4.862c.121.762.622 2.665.622 3.374 0 2.63-11.8-2.232-9.152-3.391.242-.104.986-.952 1.072-1.834.121-1.384-.986-3.097-.986-3.097z" fill="#f7a491"/><path d="m319.275 307.756s-.865 8.703-.865 8.824c0 14.067-2.785 41.56-2.249 44.207 1.298 6.454 15.174 39.38 15.174 39.38l7.509-.9-9.776-39.414 3.599-15.866 5.087-31.369z" fill="#355389"/><path d="m344.467 315.456 1.419 8.253 3.858 33.929 14.673 33.169s-2.059 4.827-5.104 5.502l-23.341-34.051-14.499-43.567.501-9.689z" fill="#13375b"/><path d="m316.299 287.045 10.398 1.073s.485-8.564.485-12.648c0-4.948-.415-11.333-1.021-11.194-1.678.38-3.928 1.315-5.26 3.166-4.654 6.385-4.602 19.603-4.602 19.603z" fill="#86b1f2"/><path d="m321.403 274.588c-.225 1.505-4.221 42.563-4.221 42.563 18.946 9.188 29.396 1.644 29.396 1.644s-.623-28.826.121-32.753c.485-2.595 1.107-19.846-.571-20.33-2.145-.623-4.619-1.281-7.301-1.557-2.302-.243-11.212-.381-12.804.155 0 0-3.703 3.928-4.62 10.278z" fill="#9bc1f9"/><path d="m364.97 391.602s-4.412 12.458-6.142 13.064c-.45.155-2.665.571-3.08 1.54-.121.294 0 1.28 0 1.28h9.188s1.159-5.485 1.626-7.907c0 0 2.44-5.9 2.163-6.419s-3.755-1.558-3.755-1.558z" fill="#184655"/><path d="m340.816 407.226-1.349-4.291s-2.838 1.212-4.256 1.004c-1.419-.208-4.188-1.004-4.188-1.004-5.657 1.869-10.312 2.786-9.464 4.291z" fill="#184655"/><path d="m314.829 304.555c-.035-.017-.191-.138-.294-.207.328-4.014.276-7.925-.987-9.24.035-.069.312-.657.589-1.263 1.453 1.125 2.145 4.135 1.886 9.015-.018.328-.122.588-.191 1.003-.415.485-.796.779-1.003.692z" fill="#f7a491"/><path d="m365.351 317.584c.017-.087.017-.173 0-.26-.277-2.837-2.63-26.714-3.028-27.735-.363-.917-10.918-16.057-10.918-16.057l-5.19 7.094 10.139 13.583c.225.865 3.893 16.973 3.893 16.973s.744 2.941 1.09 4.689c-.156.432-.312.83-.433 1.159-.329.709-.727 1.28-1.09 1.765-.45.605-1.211 1.938-1.298 2.301-.103.415-.294 1.28-.415 1.8-.104.519-.259 1.124-.277 1.401-.017.173-.19.519-.328.761-.208.364.138.779.536.658.363-.121.657-.606.831-.9.501-.848.761-2.388.882-2.301.121.086.554 2.682.623 2.993.069.294.588 3.322.882 3.876s.692.467.796.121c.087-.294-.329-4.533-.329-4.533s-.052-.537.191-.364c.242.173.623 4.015.778 4.586.156.571.537.865.848.415.381-.554-.277-4.637-.277-4.637s-.069-.519.139-.467c.207.052.484 3.322.657 3.616.173.277.606.38.796-.087.242-.553-.381-4.187-.381-4.187s.035-.294.173-.19c.139.104.571 2.872.848 3.132.242.207.433 0 .433 0 .519-.347-.277-2.994-.26-4.309 0-1.315-.605-2.785-.415-4.36.052-.138.087-.381.104-.536z" fill="#f8a492"/><path d="m359.658 283.118-9.014 6.073s-5.087-7.578-7.803-10.278c-3.409-3.391 1.245-13.738 3.443-13.167 4.913 1.315 13.374 17.372 13.374 17.372z" fill="#9bc1f9"/><path d="m338.169 255.279 1.35 8.91s-4.931 10.624-7.855 9.689c-2.475-.778-.952-10.173-.952-10.173s1.35-5.052.934-7.561c-.415-2.526 6.523-.865 6.523-.865z" fill="#f7a491"/><path d="m331.646 256.144c-.398-2.526 6.523-.883 6.523-.883l.104.744c-.208.502-.45.917-.744 1.246-1.54 1.678-3.962 2.682-6.056 2.751.208-1.367.329-2.82.173-3.858z" fill="#f47458"/><path d="m339.294 242.665c.19-.069 1.574 10.157-1.038 12.977-2.613 2.82-7.683 3.737-9.499 1.523-2.007-2.457-1.921-13.444 2.145-16.334 4.049-2.924 8.392 1.834 8.392 1.834z" fill="#f7a491"/><path d="m332.442 235.347c3.132.64 5.156 2.56 5.9 3.374 1.419.173 3.357.951 5.347 4.273 2.456 4.083.64 8.599-2.215 10.814s-2.82 4.775-2.82 4.775l-.45-1.332c-.329-1.003-.467-2.059-.364-3.114.07-.623.208-1.315.468-1.869.692-1.488-1.471-2.457-2.077-3.703-.467-.951-.484-3.114-1.228-4.688l-.883-1.194s-2.024-1.575-4.014-1.142c-1.972.45-1.678-7.025 2.336-6.194z" fill="#184655"/><path d="m336.37 250.382c-.017 1.246.536 2.267 1.263 2.284.709.017 1.315-.986 1.332-2.232.018-1.246-.536-2.267-1.263-2.284-.709-.017-1.315.986-1.332 2.232z" fill="#f7a491"/><path d="m332.131 253.272-3.928-.208s.017 1.505 1.73 1.644c2.111.173 2.198-1.436 2.198-1.436z" fill="#fff"/><g fill="#0e2e35"><path d="m78.1691 407.036h-2.3185l8.6165-44.726 1.9205.363z"/><path d="m141.876 406.846 1.92-.364-8.305-44.172-1.92.363z"/><path d="m120.473 407.036h-2.319l8.617-44.726 1.92.363z"/><path d="m99.2259 407.036 1.8691.035-8.2536-44.571-1.9205.364z"/></g><path d="m107.6 302.046c-7.6129.814-17.4579 1.679-27.3374 18.514-10.7966 18.392-5.1215 45.868 3.4085 53.498s36.3689 17.06 59.7789 2.941c0 0 14.136-8.547 6.886-22.752-11.16-21.835-9.585-26.403-14.568-34.95-4.983-8.548-12.025-18.981-28.168-17.251z" fill="#fae0b2"/><path d="m80.2627 320.56c6.7478-11.489 13.4784-15.538 19.4822-17.199-2.3185 2.423-4.6889 5.52-7.042 9.534-10.7965 18.392-5.1214 45.868 3.4086 53.498 7.5615 6.765 30.3135 14.949 51.6815 6.869-2.197 2.44-4.36 3.755-4.36 3.755-23.41 14.118-51.2491 4.689-59.7791-2.942-8.4954-7.664-14.1878-35.123-3.3912-53.515z" fill="#f7cc7f"/><path d="m132.013 330.007 1.956 5.882-5.952-2.353z" fill="#f79c8d"/><path d="m125.871 312.48c.398.017 1.488.38 3.08 3.391 2.025 3.841 5.001 15.451 5.001 15.451l-8.876 3.304-1.142-2.422-1.869-18.652c.017 0 3.703-1.072 3.806-1.072z" fill="#dd513a"/><path d="m114.158 310.819c2.543 0 8.807.744 11.713 1.678 0 0 2.146 18.392-1.92 32.355-.917 3.132.761 12.959.761 12.959l-26.2818-.346s3.1148-23.79 1.9378-27.631c-1.1765-3.841-1.1938-17.233-1.1938-17.233s.173-.035 5.8998-1.021c2.665-.45 6.367-.761 9.084-.761z" fill="#f47458"/><path d="m111.095 391.931s.589 6.713 1.644 8.565c1.073 1.851-.052 5.017-.121 5.45-.052.433-2.249 1.055-5.744.675-3.495-.364-3.426-1.177-3.149-2.474.276-1.298 2.145-2.976 2.249-4.205.121-1.246-1.073-5.692-1.073-5.692z" fill="#f7a491"/><path d="m121.736 352.275s18.133-1.004 22.181 1.453c4.049 2.457-.726 7.492-.726 7.492s-14.759 6.419-39.484 7.855c-5.8479.346-6.367-15.26-5.2596-16.558 1.09-1.298 23.2886-.242 23.2886-.242z" fill="#256653"/><path d="m106.458 407.157c-3.599-.38-3.149-2.145-2.855-3.478.173-.83 1.212-1.834 1.834-2.768.329.26.848.709 2.405 1.177 1.627.484 3.842-.468 5.26-1.056.502 1.869.519 4.274.485 4.637-.087.433-3.53 1.869-7.129 1.488z" fill="#184655"/><path d="m108.448 365.251c.727 5.485 4.308 32.788 4.308 32.788l-8.322 1.038s-10.243-35.625-9.7066-41.075c.519-5.45 4.3601-5.9 4.3601-5.9s7.4395-1.367 9.3605 13.149z" fill="#3c8f7c"/><path d="m98.8795 314.66c2.4565-.917 3.6505 21.212 3.9965 30.33 4.343.416 11.939 0 13.825-.138.882-.069 2.941-.813 3.824-.934.899-.121 1.73-.173 2.162-.104.156.035 4.706 1.886 5.087 2.284.485.502 1.782 1.782 1.557 2.318-.225.554-2.508-1.54-2.508-1.54l-1.108-.622c1.384 1.349 4.032 3.149 3.651 3.789s-2.768-1.177-4.464-2.423c1.453 1.315 3.27 3.686 2.855 4.049-.381.329-2.44-2.405-4.637-3.184-.813-.294-1.627.52-2.267.606-.467.069-1.194.225-1.661.087l-2.387-.675c-.814.069-.831.553-1.661.726-.952.208-2.527.416-3.738.71-6.99 1.713-9.326 2.509-11.4711 2.509-6.4883.017-6.8516-35.608-1.0554-37.788z" fill="#f7a491"/><path d="m94.2255 335.44c-.4671-9.326-.3979-20.832 4.8446-22.805 2.0589-.778 5.7099 3.876 5.0519 22.995-2.803.225-6.9032.415-9.8965-.19z" fill="#dd513a"/><path d="m123.483 331.426h-.519l-8.028 19.707.554-.087z" fill="#f79c8d"/><path d="m135.439 397.676s-.726 2.335.571 3.875c1.298 1.54 6.714 3.045 7.423 3.893.709.831.658 1.54.658 1.54l-15.174-.415.173-4.585.692-3.288z" fill="#f7a491"/><path d="m136.962 402.313s-3.893 1.574-5.779.64c-1.886-.935-1.834-1.194-2.371-.848-.536.346-.744 4.637-.744 4.637l17.06.502c1.194-.035 1.782-.9.831-1.644-.658-.519-1.419-.865-1.852-1.107-1.349-.762-7.145-2.18-7.145-2.18z" fill="#184655"/><path d="m134.868 356.566c1.177-2.475 3.842-5.676 8.53-3.738 4.482 1.852 5.676 6.385 4.257 11.022s-10.71 31.94-11.039 35.694l-7.423.052s1.35-21.61 1.679-26.836c.328-5.035 1.972-11.921 3.996-16.194z" fill="#3c8f7c"/><path d="m146.911 331.426h-24.812c-.657 0-1.245.397-1.505 1.003l-7.63 18.686h-13.6689c-.3806 0-.6921.312-.6921.692 0 .381.3115.693.6921.693h38.9299c1.073 0 2.042-.623 2.474-1.61l7.7-17.198c.467-1.055-.312-2.266-1.488-2.266z" fill="#000"/><path d="m133.553 342.309c-.173.847-.899 1.401-1.626 1.245-.727-.138-1.194-.951-1.021-1.782.173-.848.9-1.401 1.627-1.246.726.156 1.193.952 1.02 1.783z" fill="#fff"/><path d="m120.057 288.36c-.743-.259-1.487-.536-2.197-.882-.796-.381-1.851-.848-2.509-.934-1.384-.208-3.754-.07-5.069 1.349-1.644 1.782-4.551.329-3.962 9.62.657 10.52 6.522 9.361 6.661 9.188.138-.173 5.225-6.731 5.225-6.731s1.782 3.876 1.782 3.737c-.017-.138 9.049-12.319.069-15.347z" fill="#0e2e35"/><path d="m115.611 307.479.502 3.755s1.124 5.415-.329 6.454c-1.453 1.038-6.194-6.61-6.194-6.61l.502-9.533z" fill="#f7a491"/><path d="m109.936 304.642c1.211 3.253 4.066 5.242 6.107 6.021l-.432-3.184-5.502-5.917z" fill="#f47458"/><path d="m115.317 291.181c3.079-.502 5.848 1.989 5.779 5.069-.035 1.35-.139 3.011-.416 4.828-.674 4.342-3.633 8.166-5.588 7.82s-6.887-4.083-6.021-10.26c.519-3.807 3.01-6.938 6.246-7.457z" fill="#f7a491"/><path d="m110.42 299.382c-.173.952-.934 1.626-1.713 1.488-.778-.139-1.28-1.021-1.107-1.973.173-.951.934-1.626 1.713-1.488.761.122 1.263 1.004 1.107 1.973z" fill="#f7a491"/><path d="m109.313 297.392s2.37.588 3.253-.934c.882-1.523 4.014-4.81 8.011-3.443 3.996 1.367-3.513-3.305-3.842-3.305-.311 0-4.152-.035-4.152-.035s-2.959 2.44-3.063 2.7c-.103.259-.951 3.183-.951 3.183z" fill="#0e2e35"/><path d="m113.639 303.759 4.308.831s-.415 1.626-2.319 1.315c-2.318-.381-1.989-2.146-1.989-2.146z" fill="#fff"/></svg>