<svg fill="none" height="466" viewBox="0 0 428 466" width="428" xmlns="http://www.w3.org/2000/svg" xmlns:xlink="http://www.w3.org/1999/xlink"><linearGradient id="a" gradientUnits="userSpaceOnUse" x1="362.926" x2="148.093" y1="488.014" y2="221.204"><stop offset="0" stop-color="#dae3fe"/><stop offset="1" stop-color="#e9effd"/></linearGradient><linearGradient id="b"><stop offset="0" stop-color="#09005d"/><stop offset="1" stop-color="#1a0f91"/></linearGradient><linearGradient id="c" gradientUnits="userSpaceOnUse" x1="172.141" x2="322.612" xlink:href="#b" y1="292.57" y2="292.57"/><linearGradient id="d"><stop offset="0" stop-color="#4f52ff"/><stop offset="1" stop-color="#4042e2"/></linearGradient><linearGradient id="e" gradientUnits="userSpaceOnUse" x1="225.185" x2="253.415" xlink:href="#d" y1="182.979" y2="182.979"/><linearGradient id="f"><stop offset="0" stop-color="#ff928e"/><stop offset="1" stop-color="#fe7062"/></linearGradient><linearGradient id="g" gradientUnits="userSpaceOnUse" x1="215.071" x2="240.891" xlink:href="#f" y1="320.773" y2="289.474"/><linearGradient id="h" gradientUnits="userSpaceOnUse" x1="255.372" x2="179.609" xlink:href="#f" y1="266.738" y2="386.695"/><linearGradient id="i" gradientUnits="userSpaceOnUse" x1="275.175" x2="257.651" xlink:href="#f" y1="234.206" y2="263.558"/><linearGradient id="j" gradientUnits="userSpaceOnUse" x1="232.276" x2="265.229" xlink:href="#f" y1="305.164" y2="265.217"/><linearGradient id="k" gradientUnits="userSpaceOnUse" x1="283.712" x2="187.018" xlink:href="#f" y1="236.199" y2="389.299"/><linearGradient id="l" gradientUnits="userSpaceOnUse" x1="192.135" x2="224.688" xlink:href="#f" y1="392.564" y2="337.095"/><linearGradient id="m" gradientUnits="userSpaceOnUse" x1="255.314" x2="299.192" xlink:href="#f" y1="283.752" y2="230.561"/><linearGradient id="n" gradientUnits="userSpaceOnUse" x1="323.803" x2="195.05" xlink:href="#f" y1="191.924" y2="395.781"/><linearGradient id="o" gradientUnits="userSpaceOnUse" x1="276.289" x2="293.371" xlink:href="#f" y1="320.458" y2="258.748"/><linearGradient id="p" gradientUnits="userSpaceOnUse" x1="149.195" x2="168.376" xlink:href="#b" y1="406.079" y2="406.079"/><linearGradient id="q"><stop offset="0" stop-color="#febbba"/><stop offset="1" stop-color="#ff928e"/></linearGradient><linearGradient id="r" gradientUnits="userSpaceOnUse" x1="151.018" x2="156.578" xlink:href="#q" y1="400.679" y2="400.679"/><linearGradient id="s" gradientUnits="userSpaceOnUse" x1="114.024" x2="125.126" xlink:href="#b" y1="407.315" y2="407.315"/><linearGradient id="t" gradientUnits="userSpaceOnUse" x1="119.794" x2="126.438" xlink:href="#q" y1="397.78" y2="397.78"/><linearGradient id="u" gradientUnits="userSpaceOnUse" x1="173.535" x2="116.81" xlink:href="#d" y1="326.082" y2="419.003"/><linearGradient id="v" gradientUnits="userSpaceOnUse" x1="139.818" x2="152.523" xlink:href="#d" y1="199.807" y2="294.872"/><linearGradient id="w" gradientUnits="userSpaceOnUse" x1="192.845" x2="216.94" xlink:href="#q" y1="287.133" y2="248.143"/><linearGradient id="x" gradientUnits="userSpaceOnUse" x1="204.38" x2="195.18" xlink:href="#f" y1="205.076" y2="222.6"/><linearGradient id="y" gradientUnits="userSpaceOnUse" x1="216.317" x2="128.695" y1="187.874" y2="366.622"><stop offset="0" stop-color="#e1473d"/><stop offset="1" stop-color="#e9605a"/></linearGradient><linearGradient id="z" gradientUnits="userSpaceOnUse" x1="152.527" x2="155.406" xlink:href="#q" y1="279.956" y2="264.843"/><linearGradient id="A" gradientUnits="userSpaceOnUse" x1="160.316" x2="143.891" xlink:href="#q" y1="252.227" y2="264.795"/><linearGradient id="B" gradientUnits="userSpaceOnUse" x1="148.753" x2="164.051" xlink:href="#d" y1="242.276" y2="261.972"/><linearGradient id="C" gradientUnits="userSpaceOnUse" x1="158.279" x2="141.854" xlink:href="#q" y1="249.565" y2="262.133"/><linearGradient id="D" gradientUnits="userSpaceOnUse" x1="234.384" x2="224.746" xlink:href="#f" y1="198.146" y2="226.184"/><linearGradient id="E" gradientUnits="userSpaceOnUse" x1="162.741" x2="166.246" xlink:href="#q" y1="189.692" y2="149.826"/><linearGradient id="F" gradientUnits="userSpaceOnUse" x1="148.359" x2="144.854" xlink:href="#q" y1="190.333" y2="150.467"/><linearGradient id="G" gradientUnits="userSpaceOnUse" x1="148.741" x2="174.33" xlink:href="#b" y1="310.935" y2="319.328"/><linearGradient id="H" gradientUnits="userSpaceOnUse" x1="183.961" x2="202.281" xlink:href="#b" y1="294.362" y2="313.725"/><path d="m0 0h428v436c0 16.569-13.431 30-30 30h-368c-16.5685 0-30-13.431-30-30z" fill="#77cce0" fill-opacity=".24"/><path d="m303.825 382.797c-4.934 5.192-9.6 8.547-13.292 11.195-43.359 31.112-94.671 22.047-105.574 19.83-16.103-3.269-47.232-9.591-69.736-36.054-34.0439-40.039-28.748-103.116-2.337-144.759 4.83-7.616 30.344-49.889 82.208-56.668 31.387-4.106 67.976 4.174 94.465 26.367 55.616 46.586 51.657 140.714 14.266 180.089z" fill="url(#a)"/><g fill="#91b3fa"><g opacity=".3"><path d="m130.378 371.981c-.077.491-.526.862-1.035.828-1.121-.061-2.251-.173-3.372-.328-.544-.078-.923-.578-.846-1.121 0-.009 0-.009 0-.018.087-.534.587-.897 1.122-.828 1.061.147 2.139.259 3.2.319.543.035.966.501.94 1.044 0 .043-.009.078-.009.104zm-8.53-1.432c-.009.034-.017.077-.026.112-.147.526-.699.837-1.225.681-1.087-.31-2.165-.664-3.209-1.061-.508-.198-.767-.767-.577-1.276.198-.509.767-.768 1.276-.578.992.379 2.018.716 3.054 1.009.491.138.784.621.707 1.113zm-7.996-3.286c-.017.112-.052.215-.112.319-.267.483-.871.655-1.346.396-.983-.543-1.958-1.13-2.898-1.751-.457-.301-.578-.922-.276-1.38.302-.457.923-.577 1.38-.276.889.596 1.812 1.156 2.752 1.665.379.207.569.63.5 1.027zm-7.064-4.986c-.026.181-.112.354-.242.5-.362.406-.991.449-1.397.078-.837-.75-1.656-1.544-2.432-2.355-.38-.397-.362-1.026.034-1.406.397-.379 1.027-.362 1.406.035.733.776 1.51 1.526 2.312 2.242.267.242.371.587.319.906zm-5.77-6.434c-.044.25-.182.491-.406.646-.448.32-1.0693.216-1.3798-.232-.6469-.915-1.2766-1.864-1.8459-2.838-.276-.475-.1207-1.078.3451-1.363.4743-.276 1.0781-.121 1.3628.345.5434.923 1.1388 1.829 1.7508 2.691.155.242.207.5.173.751zm-4.2096-7.556c-.0517.328-.2673.621-.5951.759-.5089.215-1.0868-.026-1.3024-.535-.4313-1.035-.8281-2.105-1.1731-3.174-.1639-.526.1208-1.078.6383-1.251.5175-.164 1.0782.121 1.2507.638.3277 1.018.6986 2.027 1.1126 3.019.0777.181.0949.371.069.544zm3.4506-36.278c-.026.138-.069.267-.156.388-.5862.888-1.1469 1.811-1.6644 2.751-.2587.483-.8625.656-1.3455.397s-.6555-.863-.3968-1.346c.5434-.991 1.1299-1.966 1.751-2.898.3018-.457.9229-.578 1.38-.276.3367.225.4917.613.4317.984zm-5.8743 27.989c-.069.405-.3795.742-.8108.819-.5434.095-1.0523-.267-1.1471-.811-.1898-1.104-.3364-2.234-.4399-3.355-.0432-.543.3536-1.026.9056-1.078.5434-.043 1.0264.354 1.0782.906.0949 1.061.2329 2.13.414 3.182.0173.121.0173.233 0 .337zm1.9321-20.296c-.0086.061-.0259.13-.0518.19-.3795 1.001-.7159 2.027-1.0091 3.054-.1467.526-.6987.836-1.2248.681-.5262-.147-.8367-.699-.6814-1.225.3105-1.078.6641-2.165 1.0609-3.217.1898-.509.7677-.776 1.2765-.578.4486.181.7073.638.6297 1.095zm-2.4496 11.67c-.0776.492-.5175.863-1.035.829-.5434-.026-.9661-.501-.9402-1.044.0604-1.121.1725-2.251.3278-3.364 0-.009 0-.017 0-.017.0862-.535.5779-.897 1.1126-.828.5434.077.9229.578.8453 1.121-.1466 1.061-.2501 2.13-.3105 3.2.0086.034.0086.069 0 .103z" opacity=".3"/><path d="m104.623 306.575c-.034.189-.121.379-.267.526-.354.371-.708.75-1.053 1.138-.362.406-.992.449-1.397.087-.414-.363-.448-.992-.086-1.398.362-.405.733-.802 1.104-1.19.379-.397 1.009-.405 1.406-.026.25.224.345.552.293.863z" opacity=".3"/></g><g opacity=".3"><path d="m132.465 294.732c-.077.474-.483.837-.983.837-.509 0-1.035.008-1.544.034-.552.026-1.009-.405-1.035-.949-.026-.552.406-1.009.949-1.035.543-.025 1.087-.034 1.63-.034.552 0 .992.448.992.992.009.052 0 .103-.009.155z" opacity=".3"/><path d="m170.633 339.498c-.069.448-.155.905-.242 1.354-.103.534-.629.888-1.164.785-.535-.104-.888-.63-.785-1.165.207-1.043.362-2.087.483-3.131.06-.543.552-.94 1.095-.88.544.061.941.552.88 1.096-.077.647-.164 1.294-.267 1.941zm-1.596 6.408c-.008.052-.026.112-.043.164-.354 1.044-.768 2.096-1.207 3.105-.216.5-.803.733-1.312.509-.5-.224-.733-.811-.508-1.311.422-.957.81-1.949 1.147-2.95.181-.517.742-.793 1.259-.621.466.173.733.638.664 1.104zm2.07-13.567c-.077.465-.465.819-.957.836-.552.017-1.001-.414-1.018-.966-.026-1.052-.103-2.113-.216-3.157-.06-.543.328-1.035.88-1.095.544-.061 1.035.328 1.096.88.12 1.104.198 2.216.224 3.32.009.061 0 .121-.009.182zm-5.692 21.27c-.018.12-.061.25-.138.362-.578.94-1.208 1.872-1.864 2.76-.327.44-.948.535-1.388.207s-.535-.949-.207-1.389c.621-.845 1.216-1.725 1.768-2.622.285-.466.897-.612 1.363-.328.353.225.526.63.466 1.01zm4.528-29.689c-.061.38-.337.707-.733.802-.535.138-1.07-.189-1.208-.716-.259-1.017-.56-2.035-.906-3.027-.181-.518.095-1.087.613-1.259.517-.181 1.087.095 1.259.612.362 1.044.682 2.122.958 3.191.034.13.043.268.017.397zm-2.985-7.97c-.051.302-.232.578-.534.725-.492.25-1.087.052-1.337-.44-.475-.94-.992-1.863-1.544-2.76-.285-.466-.147-1.078.328-1.363.465-.285 1.078-.138 1.362.328.578.94 1.13 1.915 1.622 2.907.112.198.138.405.103.603zm-4.649-7.124c-.034.233-.155.448-.353.612-.423.345-1.052.285-1.398-.138-.664-.811-1.38-1.604-2.113-2.354-.379-.397-.371-1.018.018-1.406.396-.38 1.017-.371 1.405.017.768.793 1.519 1.63 2.217 2.484.199.233.268.517.224.785zm-6.089-5.934c-.026.163-.095.319-.198.448-.337.431-.958.509-1.389.173-.828-.647-1.699-1.268-2.57-1.838-.458-.301-.587-.914-.294-1.371.302-.457.915-.587 1.372-.293.923.604 1.837 1.259 2.708 1.932.302.233.431.604.371.949zm-7.245-4.46c-.018.087-.043.181-.087.268-.232.491-.828.707-1.319.474-.949-.448-1.932-.862-2.916-1.225-.517-.189-.776-.767-.586-1.276.19-.518.759-.777 1.276-.587 1.035.388 2.07.82 3.071 1.294.405.19.621.621.561 1.052zm-8.048-2.76c0 .017-.008.043-.008.061-.121.534-.647.871-1.182.75-.759-.173-1.527-.319-2.286-.44-.276-.043-.552-.086-.828-.121-.543-.077-.923-.578-.845-1.121.069-.552.578-.923 1.121-.845.293.043.578.086.871.129.803.13 1.613.285 2.407.466.5.112.828.612.75 1.121z" opacity=".3"/><path d="m160.17 360.345c-.035.198-.121.38-.267.535-.371.388-.768.767-1.156 1.138-.397.38-1.027.363-1.406-.043-.38-.397-.362-1.026.043-1.406.371-.353.742-.716 1.104-1.087.38-.396 1.009-.396 1.406-.017.224.242.328.569.276.88z" opacity=".3"/></g><path d="m149.018 357.188c.172-.095.259-.293.224-.492l-1.078-5.537c1.923-1.803 3.571-3.933 4.847-6.322l5.624-.406c.198-.017.362-.155.414-.345l1.742-6.546c.052-.19-.025-.397-.189-.501l-4.684-3.148c.086-2.708-.285-5.373-1.052-7.901l3.7-4.269c.129-.147.147-.363.052-.535l-3.39-5.857c-.103-.172-.293-.258-.492-.224l-5.537 1.078c-1.803-1.923-3.933-3.571-6.322-4.847l-.406-5.624c-.017-.198-.155-.362-.345-.414l-6.546-1.742c-.19-.052-.397.026-.501.19l-3.148 4.683c-2.708-.086-5.374.285-7.901 1.052l-4.269-3.7c-.147-.129-.363-.146-.535-.052l-5.857 3.39c-.172.095-.258.293-.224.492l1.078 5.537c-1.923 1.803-3.571 3.933-4.847 6.323l-5.624.405c-.198.017-.362.155-.414.345l-1.742 6.547c-.052.189.026.396.189.5l4.684 3.148c-.086 2.709.285 5.374 1.052 7.901l-3.7 4.27c-.129.146-.147.362-.052.534l3.39 5.857c.095.172.293.259.492.224l5.537-1.078c1.803 1.923 3.933 3.571 6.323 4.847l.405 5.624c.017.199.155.362.345.414l6.547 1.742c.189.052.396-.025.5-.189l3.148-4.684c2.708.086 5.374-.284 7.901-1.052l4.269 3.7c.147.13.363.147.535.052z"/></g><path d="m137.908 334.245c-.526 3.277-3.398 5.761-6.814 5.718-3.752-.051-6.762-3.148-6.719-6.9.026-1.82.759-3.519 2.061-4.787 1.303-1.268 3.019-1.949 4.839-1.932 3.752.052 6.763 3.148 6.719 6.9 0 .337-.034.673-.086 1.001zm-11.868-1.932c-.043.25-.061.509-.069.767-.035 2.881 2.268 5.253 5.149 5.288 2.881.034 5.253-2.269 5.287-5.15.035-2.881-2.268-5.253-5.149-5.287-1.397-.017-2.708.509-3.709 1.475-.811.802-1.328 1.811-1.509 2.907z" fill="#bdd0fb"/><path d="m147.638 335.668c-.095.561-.207 1.121-.363 1.682-.043.172-.095.353-.146.526-.259.863-.587 1.699-.975 2.493-.009.008-.009.026-.017.034-.017.035-.035.061-.043.095-.026.06-.061.121-.095.181-.078.155-.25.242-.414.216-.043-.009-.078-.017-.121-.043-.198-.104-.267-.337-.173-.535.518-1.001.923-2.07 1.217-3.166 1.457-5.459-.112-11.023-3.683-14.904-1.984-2.156-4.58-3.795-7.617-4.606-.534-.138-1.069-.259-1.604-.345-3.614-.578-7.28.095-10.488 1.949-3.683 2.131-6.323 5.572-7.418 9.687-2.269 8.495 2.803 17.25 11.299 19.51.526.138 1.052.25 1.587.336 2.303.371 4.667.233 6.909-.414.06-.017.121-.017.173-.008.146.026.276.129.319.284.06.207-.061.432-.276.492-2.355.673-4.83.819-7.254.431-.561-.086-1.113-.207-1.665-.353-8.918-2.381-14.232-11.576-11.86-20.485 1.156-4.322 3.916-7.936 7.789-10.17 3.372-1.949 7.219-2.656 11.015-2.044.56.095 1.129.207 1.681.362 4.322 1.156 7.936 3.916 10.17 7.789 1.958 3.355 2.665 7.211 2.053 11.006z" fill="#bdd0fb"/><g fill="#91b3fa"><g opacity=".3"><path d="m150.812 409.578c-.044.259-.251.475-.527.509-.517.069-1.043.112-1.561.147-.336.026-.629-.233-.655-.569-.026-.337.233-.63.569-.656.492-.034.992-.077 1.492-.146.337-.044.638.198.682.534.008.069.008.13 0 .181z" opacity=".3"/><path d="m146.102 409.742c-.052.311-.328.535-.638.518-.897-.052-1.794-.147-2.683-.293-.19-.026-.371-.061-.56-.095-.337-.061-.535-.397-.492-.716.06-.337.379-.552.716-.492.181.035.353.061.535.095.845.138 1.707.233 2.553.276.336.017.595.311.578.647-.009.017-.009.034-.009.06zm-6.262-1.147c-.009.026-.009.061-.017.086-.104.32-.449.501-.768.406-1.035-.328-2.061-.716-3.045-1.165-.31-.138-.44-.5-.302-.81.138-.311.501-.449.811-.302.94.422 1.924.802 2.907 1.104.285.095.457.388.414.681zm-5.796-2.631c-.009.078-.043.156-.087.225-.181.284-.552.379-.845.198-.923-.569-1.82-1.199-2.674-1.88-.267-.216-.31-.595-.095-.863.207-.267.596-.31.863-.095.811.647 1.665 1.251 2.544 1.786.225.146.328.397.294.629zm-4.977-3.967c-.017.129-.078.241-.173.345-.241.233-.629.233-.871-.009-.759-.776-1.475-1.613-2.13-2.475-.207-.268-.155-.656.121-.863.267-.207.655-.155.862.121.621.819 1.311 1.613 2.036 2.355.129.138.189.336.155.526zm-3.847-5.072c-.026.173-.129.336-.293.431-.294.173-.664.069-.837-.224-.543-.94-1.035-1.915-1.466-2.915-.138-.311.008-.673.319-.802.31-.13.673.008.802.319.405.948.88 1.889 1.397 2.777.078.138.095.276.078.414zm-2.51-5.848c-.034.224-.198.423-.431.492-.328.095-.664-.095-.759-.423-.302-1.044-.544-2.113-.708-3.183-.051-.336.173-.647.509-.698.337-.052.647.172.699.509.164 1.017.388 2.044.673 3.036.026.086.034.181.017.267zm-.992-6.279c-.043.284-.285.509-.586.517-.337.009-.621-.25-.63-.595-.035-1.078-.009-2.182.095-3.26.034-.337.328-.587.664-.552.336.034.587.328.552.664-.095 1.035-.121 2.079-.086 3.114 0 .034-.009.069-.009.112zm1.432-9.41c-.009.034-.017.069-.026.103-.293.845-.543 1.717-.75 2.596-.035.13-.061.268-.087.397-.069.328-.396.543-.724.474s-.552-.396-.475-.724c.035-.138.061-.276.095-.423.216-.923.483-1.837.785-2.725.112-.319.457-.492.777-.38.284.104.457.397.405.682z" opacity=".3"/></g><g opacity=".3"><path d="m173.16 387.67c-.052.328-.362.561-.699.509-.336-.052-.569-.362-.517-.699.146-1.009.241-2.035.267-3.053.009-.336.293-.604.63-.595.336.008.604.293.595.629-.026 1.07-.121 2.148-.276 3.209zm-.647 3.071c0 .026-.009.043-.017.069-.285 1.026-.63 2.053-1.027 3.036-.129.31-.483.466-.802.336-.31-.129-.466-.483-.336-.802.388-.94.716-1.915.983-2.898.086-.328.423-.518.751-.431.31.086.5.388.448.69zm.802-9.324c-.043.267-.259.483-.543.509-.337.034-.638-.216-.673-.552-.103-1.018-.259-2.036-.483-3.028-.069-.328.138-.655.466-.733s.655.138.733.466c.233 1.043.397 2.104.5 3.174.009.06.009.112 0 .164zm-3.165 15.129c-.009.069-.035.138-.069.198-.518.931-1.104 1.846-1.734 2.7-.198.276-.587.336-.854.129-.276-.198-.328-.586-.129-.854.603-.819 1.155-1.69 1.656-2.579.164-.293.535-.405.836-.233.216.13.328.388.294.639zm1.811-21.236c-.034.216-.181.405-.397.483-.319.112-.673-.052-.785-.371-.336-.957-.741-1.906-1.19-2.82-.155-.302-.026-.673.276-.82.302-.146.673-.026.819.276.475.958.897 1.95 1.251 2.959.035.086.035.189.026.293zm-2.786-5.607c-.026.164-.121.32-.267.415-.285.189-.665.103-.846-.173-.56-.854-1.181-1.673-1.837-2.45-.215-.258-.19-.647.069-.862.259-.216.647-.19.863.069.69.811 1.337 1.682 1.923 2.57.086.13.121.285.095.431zm-4.045-4.778c-.018.112-.069.224-.156.319-.232.25-.621.268-.862.035-.75-.69-1.544-1.346-2.372-1.941-.276-.198-.336-.578-.138-.854s.578-.336.854-.138c.862.621 1.699 1.311 2.484 2.036.155.138.216.345.19.543z" opacity=".3"/><path d="m166.432 401.617c-.017.121-.069.233-.155.319-.362.38-.733.759-1.104 1.113-.25.233-.638.224-.863-.026-.233-.25-.224-.629.026-.862.354-.337.716-.69 1.052-1.061.233-.25.621-.259.863-.026.147.146.207.345.181.543z" opacity=".3"/></g><path d="m158.695 399.858c.112-.069.173-.199.147-.328l-.725-3.709c1.285-1.208 2.389-2.631 3.243-4.235l3.77-.267c.129-.009.241-.104.276-.233l1.164-4.382c.035-.129-.017-.267-.129-.336l-3.131-2.114c.051-1.811-.19-3.596-.708-5.287l2.476-2.855c.086-.103.103-.241.034-.362l-2.268-3.925c-.069-.112-.199-.172-.328-.146l-3.709.724c-1.207-1.285-2.631-2.389-4.235-3.243l-.267-3.769c-.009-.13-.104-.242-.233-.276l-4.382-1.165c-.129-.034-.267.018-.336.13l-2.113 3.131c-1.812-.052-3.597.19-5.288.707l-2.855-2.475c-.103-.087-.241-.104-.362-.035l-3.924 2.269c-.113.069-.173.198-.147.327l.724 3.709c-1.285 1.208-2.389 2.631-3.243 4.235l-3.769.268c-.129.008-.241.103-.276.232l-1.164 4.382c-.035.13.017.268.129.337l3.131 2.113c-.052 1.811.19 3.597.707 5.287l-2.475 2.855c-.086.104-.104.242-.035.362l2.269 3.925c.069.112.198.172.328.147l3.708-.725c1.208 1.285 2.631 2.389 4.235 3.243l.268 3.769c.008.13.103.242.233.276l4.381 1.165c.13.034.268-.017.337-.13l2.113-3.131c1.811.052 3.597-.189 5.287-.707l2.855 2.476c.104.086.242.103.363.034z"/></g><path d="m151.338 384.513c-.155.975-.621 1.872-1.346 2.579-.888.863-2.061 1.328-3.295 1.311-2.553-.034-4.606-2.139-4.571-4.701.043-2.561 2.139-4.606 4.701-4.571 1.242.017 2.398.518 3.26 1.406.863.888 1.328 2.061 1.311 3.295 0 .233-.017.457-.06.681zm-7.944-1.285c-.026.164-.043.328-.043.5-.026 1.881 1.483 3.433 3.364 3.459.914.009 1.768-.328 2.423-.966.656-.638 1.018-1.484 1.035-2.398.009-.914-.327-1.768-.966-2.424-.638-.655-1.483-1.017-2.398-1.035-1.707-.025-3.148 1.217-3.415 2.864z" fill="#bdd0fb"/><path d="m158.109 385.522c-.061.38-.147.768-.242 1.148-.198.759-.483 1.5-.836 2.199-.018.034-.035.06-.052.095-.121.241-.388.371-.638.328-.061-.009-.121-.026-.182-.061-.301-.155-.422-.526-.267-.828.336-.655.595-1.345.785-2.053.009-.043.017-.077.034-.12.432-1.682.432-3.416.018-5.055-.225-.888-.57-1.759-1.035-2.579 0-.008-.009-.017-.009-.017-.009-.017-.026-.043-.034-.06-1.381-2.39-3.606-4.089-6.271-4.805-.345-.095-.69-.164-1.035-.224-2.338-.38-4.718.06-6.788 1.259-2.39 1.38-4.089 3.606-4.805 6.271-.707 2.665-.345 5.443 1.044 7.832 1.38 2.389 3.605 4.088 6.271 4.804.336.095.681.164 1.026.216 1.492.241 3.019.155 4.468-.268.086-.026.181-.026.267-.017.225.035.423.198.492.44.095.328-.095.664-.423.759-1.63.466-3.338.569-5.002.302-.388-.061-.768-.147-1.147-.242-2.985-.793-5.469-2.699-7.021-5.373-1.544-2.665-1.958-5.779-1.165-8.764.794-2.984 2.7-5.468 5.374-7.021 2.32-1.345 4.985-1.828 7.599-1.414.388.06.776.146 1.164.25 5.753 1.553 9.341 7.219 8.41 12.998z" fill="#bdd0fb"/><path d="m174.6 187.209c-.793 37.382-3.363 166.339-2.139 212.036.13 4.839 3.451 8.729 7.582 8.884 20.468.785 95.5 2.769 128.975 1.13 6.969-.345 12.515-6.952 12.662-15.111.698-39.237 2.234-149.607-1.415-200.168-.44-6.055-4.502-10.886-9.669-11.489-22.288-2.605-97.647-8.988-126.568-6.789-5.21.397-9.298 5.391-9.428 11.507z" fill="url(#c)"/><path d="m183.735 198.68c-1.104 30.172-4.58 130.562-3.476 167.677.164 5.425 3.812 9.816 8.453 10.126 19.07 1.302 84.148 4.183 112.129 1.561 5.037-.474 8.988-5.235 9.264-11.144 1.414-30.784 5.485-124.256 4.433-160.966-.173-5.856-4.045-10.635-9.031-11.161-20.632-2.165-89.789-7.323-113.561-5.805-4.468.302-8.021 4.485-8.211 9.712z" fill="#91b3fa"/><path d="m189.074 204.623c-1.01 28.067-4.184 121.454-3.175 155.981.147 5.046 3.494 9.125 7.729 9.419 17.449 1.216 76.964 3.89 102.555 1.457 4.606-.44 8.22-4.873 8.47-10.367 1.294-28.636 5.02-115.588 4.054-149.728-.155-5.442-3.7-9.893-8.263-10.384-18.872-2.019-82.122-6.814-103.866-5.4-4.08.267-7.323 4.166-7.504 9.022z" fill="#fff" opacity=".33"/><path d="m225.188 182.232c0 1.147.767 2.096 1.742 2.156 4.83.293 18.45 1.13 24.539 1.544 1.199.078 2.139-1.182 1.915-2.562l-.035-.233c-.155-.94-.819-1.647-1.638-1.742-4.115-.44-16.526-1.665-24.755-1.32-.992.044-1.768 1.001-1.768 2.157z" fill="url(#e)" opacity=".66"/><path d="m277.561 342.999h-59.333c-.604 0-1.096-.491-1.096-1.095v-16.052c0-.603.492-1.095 1.096-1.095h59.333c.604 0 1.096.492 1.096 1.095v16.052c.008.604-.483 1.095-1.096 1.095z" fill="#fff" opacity=".54"/><path d="m277.846 356.791h-59.334c-.604 0-1.095-.491-1.095-1.095v-6.926c0-.604.491-1.096 1.095-1.096h59.334c.604 0 1.095.492 1.095 1.096v6.926c.009.604-.483 1.095-1.095 1.095z" fill="#fff" opacity=".54"/><path d="m241.412 308.584c10.904 0 19.744-8.839 19.744-19.743s-8.84-19.743-19.744-19.743-19.743 8.839-19.743 19.743 8.839 19.743 19.743 19.743z" fill="url(#g)"/><path d="m241.412 307.929c10.542 0 19.088-8.546 19.088-19.088s-8.546-19.088-19.088-19.088-19.088 8.546-19.088 19.088 8.546 19.088 19.088 19.088z" fill="url(#h)"/><path d="m225.516 281.889c-.095 0-.199-.017-.285-.06-.319-.156-.449-.535-.302-.854 2.993-6.262 9.16-10.239 16.086-10.385 1.104-.026 2.217.051 3.295.224.345.052.587.38.526.733-.051.345-.379.587-.733.526-1.009-.164-2.035-.233-3.07-.207-6.444.138-12.179 3.839-14.965 9.661-.095.224-.32.353-.552.362z" fill="#fff" opacity=".7"/><path d="m253.255 300.672c6.309-6.309 6.309-16.538 0-22.847s-16.538-6.309-22.847 0-6.309 16.538 0 22.847 16.538 6.309 22.847 0z" fill="#fff" opacity=".78"/><path d="m240.506 301.287-.034-1.759c-1.837-.035-3.657-.432-4.951-.966-.466-.19-.708-.699-.587-1.191l.414-1.647c.147-.604.794-.932 1.38-.699 1.285.509 2.873.897 4.572.863 1.768-.035 3.07-.664 3.044-1.889-.025-1.104-1.052-1.742-3.519-2.346-3.519-.88-6.063-2.355-6.132-5.434-.061-2.778 1.932-4.951 5.442-5.589l-.034-1.76c-.009-.569.44-1.035 1-1.044l1.035-.025c.57-.009 1.035.439 1.044 1l.035 1.579c1.699.034 2.932.293 3.924.621.509.163.794.698.664 1.216l-.379 1.526c-.147.587-.759.923-1.337.716-.906-.319-2.191-.647-3.847-.612-2.096.043-2.674.923-2.657 1.699.018.957 1.294 1.587 4.028 2.363 3.916 1.087 5.564 2.666 5.624 5.564.06 2.665-1.863 5.097-5.684 5.779l.043 1.966c.009.57-.44 1.035-1 1.044l-1.036.026c-.569.017-1.035-.431-1.052-1.001z" fill="url(#i)"/><path d="m265.891 289.609c13.919 0 25.203-11.284 25.203-25.204 0-13.919-11.284-25.203-25.203-25.203-13.92 0-25.203 11.284-25.203 25.203 0 13.92 11.283 25.204 25.203 25.204z" fill="url(#j)"/><path d="m265.891 288.763c13.452 0 24.358-10.905 24.358-24.358 0-13.452-10.906-24.358-24.358-24.358-13.453 0-24.358 10.906-24.358 24.358 0 13.453 10.905 24.358 24.358 24.358z" fill="url(#k)"/><path d="m245.604 255.34c-.095 0-.19-.017-.285-.06-.31-.147-.439-.518-.293-.828 3.787-7.927 11.593-12.964 20.365-13.145 1.397-.026 2.803.069 4.174.284.337.052.57.371.518.708-.052.336-.371.578-.708.517-1.302-.207-2.63-.302-3.95-.267-8.306.181-15.689 4.942-19.269 12.446-.103.216-.319.345-.552.345z" fill="#fff" opacity=".7"/><path d="m281.017 279.516c8.054-8.054 8.054-21.111 0-29.165s-21.111-8.054-29.165 0-8.054 21.111 0 29.165 21.111 8.054 29.165 0z" fill="#fff" opacity=".78"/><path d="m264.744 280.293-.052-2.242c-2.338-.043-4.666-.544-6.322-1.234-.596-.241-.906-.897-.751-1.518l.526-2.104c.19-.768 1.018-1.182 1.76-.897 1.647.646 3.666 1.147 5.839 1.095 2.251-.052 3.916-.845 3.882-2.415-.035-1.415-1.346-2.225-4.494-2.993-4.494-1.13-7.737-3.002-7.823-6.935-.078-3.554 2.458-6.314 6.952-7.133l-.052-2.243c-.017-.724.561-1.319 1.276-1.337l1.32-.025c.725-.018 1.32.56 1.337 1.276l.043 2.01c2.165.043 3.752.379 5.011.785.647.207 1.01.897.846 1.552l-.483 1.941c-.19.75-.975 1.173-1.699.914-1.156-.414-2.795-.828-4.908-.785-2.674.061-3.407 1.182-3.39 2.174.026 1.225 1.647 2.027 5.141 3.019 4.994 1.38 7.098 3.398 7.176 7.098.069 3.399-2.381 6.504-7.254 7.375l.052 2.51c.017.725-.561 1.32-1.277 1.337l-1.319.026c-.725.052-1.32-.526-1.337-1.251z" fill="url(#l)"/><path d="m300.082 263.043c18.53 0 33.552-15.022 33.552-33.553s-15.022-33.553-33.552-33.553c-18.531 0-33.553 15.022-33.553 33.553s15.022 33.553 33.553 33.553z" fill="url(#m)"/><path d="m300.082 261.93c17.916 0 32.44-14.524 32.44-32.44s-14.524-32.44-32.44-32.44-32.44 14.524-32.44 32.44 14.524 32.44 32.44 32.44z" fill="url(#n)"/><path d="m273.059 217.19c-.095 0-.181-.017-.276-.06-.302-.147-.432-.509-.285-.811 5.011-10.471 15.327-17.138 26.92-17.38 1.854-.043 3.709.086 5.52.38.328.051.552.362.5.69-.052.327-.362.56-.69.5-1.742-.276-3.528-.397-5.304-.362-11.136.241-21.046 6.633-25.859 16.69-.095.224-.302.353-.526.353z" fill="#fff" opacity=".7"/><path d="m320.21 249.595c10.722-10.721 10.722-28.104 0-38.826-10.721-10.721-28.104-10.721-38.826 0-10.721 10.722-10.721 28.105 0 38.826 10.722 10.722 28.105 10.722 38.826 0z" fill="#fff" opacity=".78"/><path d="m298.546 250.639-.06-2.984c-3.114-.06-6.21-.725-8.418-1.639-.785-.328-1.208-1.19-1.001-2.018l.699-2.795c.259-1.026 1.354-1.578 2.337-1.19 2.191.862 4.882 1.527 7.772 1.466 3.001-.06 5.209-1.13 5.166-3.208-.043-1.881-1.794-2.959-5.986-3.994-5.977-1.501-10.307-4.002-10.419-9.238-.104-4.726 3.277-8.409 9.255-9.505l-.061-2.984c-.017-.958.742-1.76 1.7-1.777l1.751-.034c.957-.018 1.759.741 1.776 1.699l.061 2.682c2.881.052 4.994.5 6.667 1.052.863.285 1.346 1.191 1.13 2.071l-.638 2.587c-.25 1.001-1.294 1.561-2.269 1.225-1.544-.543-3.726-1.104-6.538-1.044-3.553.078-4.545 1.57-4.511 2.89.035 1.63 2.191 2.7 6.849 4.019 6.65 1.837 9.453 4.529 9.557 9.454.095 4.519-3.174 8.659-9.652 9.815l.069 3.338c.017.958-.742 1.76-1.699 1.777l-1.751.035c-.975.025-1.768-.734-1.786-1.7z" fill="url(#o)"/><path d="m222.894 235.027h-114.976c-.992 0-1.803-.802-1.803-1.802v-56.099c0-.992.802-1.803 1.803-1.803h114.976c.992 0 1.802.802 1.802 1.803v56.099c0 .992-.802 1.802-1.802 1.802z" fill="#7d97f4"/><g fill="#fff"><path d="m219.271 233.992h-108.843c-.992 0-1.803-.802-1.803-1.802v-47.672c0-.992.802-1.803 1.803-1.803h108.843c.992 0 1.803.802 1.803 1.803v47.68c0 .992-.803 1.794-1.803 1.794z" opacity=".41"/><path d="m119.105 192.341h-6.797v39.21h6.797z" opacity=".4489"/><path d="m128.23 192.341h-6.796v39.21h6.796z" opacity=".4489"/><path d="m137.166 192.341h-6.797v39.21h6.797z" opacity=".4489"/><path d="m146.292 192.341h-6.797v39.21h6.797z" opacity=".4489"/><path d="m154.96 192.341h-6.796v39.21h6.796z" opacity=".4489"/><path d="m164.086 192.341h-6.797v39.21h6.797z" opacity=".4489"/><path d="m173.022 192.341h-6.797v39.21h6.797z" opacity=".4489"/><path d="m182.147 192.341h-6.796v39.21h6.796z" opacity=".4489"/><path d="m191.247 192.341h-6.797v39.21h6.797z" opacity=".4489"/><path d="m200.372 192.341h-6.796v39.21h6.796z" opacity=".4489"/><path d="m209.308 192.341h-6.796v39.21h6.796z" opacity=".4489"/><path d="m218.434 192.341h-6.797v39.21h6.797z" opacity=".4489"/></g><g fill="#7d97f4"><path d="m224.731 187.804v-8.815c0-2.062-1.699-3.744-3.761-3.744h-111.111c-2.062 0-3.709 1.682-3.709 3.744v8.815z"/><path d="m119.148 212.619h-6.797v18.932h6.797z"/><path d="m128.274 206.831h-6.797v24.72h6.797z"/><path d="m137.209 217.233h-6.796v14.318h6.796z"/><path d="m146.335 201.639h-6.797v29.912h6.797z"/><path d="m155.004 196.636h-6.797v34.915h6.797z"/><path d="m164.129 220.908h-6.796v10.643h6.796z"/><path d="m173.065 210.281h-6.797v21.27h6.797z"/><path d="m182.191 206.831h-6.797v24.72h6.797z"/><path d="m191.281 211.946h-6.796v19.606h6.796z"/><path d="m200.407 198.956h-6.797v32.595h6.797z"/><path d="m209.343 201.639h-6.796v29.912h6.796z"/><path d="m218.477 205.399h-6.797v26.152h6.797z"/><path d="m168.373 408.992c-3.381.293-9.247.768-13.878.975-2.778.12-4.382-.147-5.305-.518 0 .104.009.198.009.293.025.483.414.88.905.906 8.738.492 15.69.172 18.165.017.509-.034.82-.586.552-1.026-.112-.224-.276-.431-.448-.647z"/></g><path d="m154.503 409.967c4.624-.207 10.497-.682 13.879-.975-3.321-4.08-13.879-6.831-13.879-6.831h-2.984c-2.053 2.958-2.346 5.77-2.32 7.279.923.371 2.518.647 5.304.527z" fill="url(#p)"/><path d="m151.019 397.305.276 5.52c.025.595.474 1.104 1.078 1.181.595.087 1.388.095 2.242-.189.518-.173.906-.613 1.001-1.147l.966-5.374h-5.563z" fill="url(#r)"/><path d="m116.431 415.357c-1.466-.267-2.131-1.25-2.407-2.303 0 .009 0 .018-.008.026-.216 1.113.284 2.26 1.285 2.812 1.208.664 2.527.776 3.554.716 1.104-.06 2.113-.647 2.665-1.587l.008-.017c-1.104.716-2.648.793-5.097.353z" fill="#7d97f4"/><path d="m123.348 399.004h-2.458c-3.743-.095-6.098 10.109-6.866 14.059.276 1.052.941 2.036 2.407 2.303 2.441.44 3.993.354 5.097-.345 2.019-3.442 3.028-8.479 3.511-11.42.552-3.355-1.691-4.597-1.691-4.597z" fill="url(#s)"/><path d="m121.201 393.88-1.363 5.426c-.164.664.155 1.354.767 1.673.768.388 1.838.802 2.83.681.465-.051.854-.379 1-.819l2.001-5.71z" fill="url(#t)"/><path d="m169.209 322.394s-12.196 76.23-11.997 76.644c0 0-3.364 1.527-7.039.199 0 0 1.104-40.746 3.683-56.376 0 0-20.813 36.425-27.42 54.573 0 0-3.45-.414-6.296-2.286 0 0 22.409-65.561 28.386-74.29z" fill="url(#u)"/><path d="m154.348 342.594c-.086 0-.181-.026-.259-.078-.233-.146-.302-.448-.155-.672l4.554-7.28c.069-.112.19-.19.319-.224l3.355-.673c.268-.052.527.121.578.379.052.268-.12.527-.379.578l-3.148.63-4.442 7.099c-.104.163-.259.241-.423.241z" fill="url(#v)"/><path d="m225.17 247.75s-8.228 1.811-13.231 4.123c-.992.457-1.785 1.259-2.242 2.251-1.501 3.278-5.978 11.498-14.664 15.422 1.251 1.656 3.269 5.115 4.141 10.92 5.218-3.882 9.72-10.368 11.885-21.003 0 0 1.648.897 3.701-.103 1.086-.527 2.337-1.277 3.277-1.864.94-.586 1.639-1.492 1.906-2.561.354-1.406.147-2.64.147-3.968l4.226-1.311c.009.017 1.277-.466.854-1.906z" fill="url(#w)"/><path d="m199.182 280.466c-.879-5.805-2.889-9.255-4.14-10.92-5.399 2.441-12.412 3.217-21.347.121-.828-.285-1.682-.449-2.553-.5-4.762-.276-20.434-.785-33.406 3.501-2.735.906-4.943 2.924-6.081 5.538-3.511 8.056-9.195 26.393 6.581 35.657 1.216-3.01 2.613-5.425 3.804-7.202-2.545-4.287-3.295-10.135 1.216-17.76 3.286 8.876 4.83 21.822 5.149 27.558.104 1.889-.224 3.77-.966 5.512l-.078.19c-.155.371.061.802.458.888 8.884 1.993 18.113 1.449 20.873 1.225.492-.043.906-.397 1.018-.871 4.321-18.191 4.33-30.603 3.269-38.452 4.028.906 16.379 2.829 26.203-4.485z" fill="url(#x)"/><path d="m172.987 285.572c-.241 0-.448-.181-.483-.423-1.018-7.659-3.062-10.954-3.079-10.98-.147-.233-.078-.535.155-.673.233-.146.535-.077.673.156.086.138 2.182 3.51 3.226 11.377.034.267-.155.517-.423.552-.026-.018-.052-.009-.069-.009z" fill="url(#y)"/><path d="m151.07 258.566s-.897 9.497-1.69 12.308c-.121.423.069.88.448 1.096 1.346.767 4.563 2.018 8.971-.138.716-.354 1.138-1.096 1.112-1.881l-.388-9.177z" fill="url(#z)"/><path d="m159.713 246.422s2.872 6.598 3.062 10.065c.19 3.468.94 5.71-3.062 6.409s-7.383-1.294-9.212-4.753c0 0-2.864-5.313-2.225-7.495.647-2.174 11.437-4.226 11.437-4.226z" fill="url(#A)"/><path d="m151.872 255.659.225-.103c.293-.13.414-.475.267-.759-.561-1.096-1.665-3.588-.241-4.175 1.837-.75 9.091-2.234 10.66-4.813 1.51-2.475.173-5.675-1.837-6.581-.138-.06-.293-.009-.362.121l-.164.319c-.112.216-.431.181-.5-.052-.069-.224-.362-.267-.492-.069-.483.768-1.785 2.018-5.261 2.665-4.943.915-8.212 2.916-8.289 6.323-.009.215-.233.336-.423.224-.362-.224-.949-.328-1.725.328-1.354 1.138-.802 4.097 2.174 6.538.138.112.138.336-.009.44-.543.353-1.345 1.19.742 2.303 2.156 1.155 3.761 1.061 4.382.957.155-.026.25-.172.215-.328l-.664-3.001c-.034-.173.095-.328.267-.328h1.035z" fill="url(#B)"/><path d="m152.002 256.298s-1.095-4.218-2.984-3.037c-1.889 1.182.983 4.727 2.501 4.882z" fill="url(#C)"/><path d="m213.259 258.618c-.112 0-.216-.035-.31-.112-.207-.173-.242-.483-.069-.69.31-.389 3.087-3.778 4.174-4.391.354-.198.561-.396.604-.569.009-.026.017-.069-.009-.164l-3.105.621-1.811 1.553c-.207.172-.518.155-.69-.052-.173-.207-.155-.518.052-.69l1.906-1.639c.06-.052.138-.095.224-.112l3.588-.716c.19-.043.388.043.501.207.284.414.379.828.284 1.216-.112.457-.457.854-1.078 1.199-.699.397-2.76 2.76-3.899 4.158-.086.12-.224.181-.362.181z" fill="url(#D)"/><path d="m151.916 320.341 12.964-.285s-11.308-3.2-12.007-2.329c0 0-7.004-4.606-10.85-11.083-1.199 1.776-2.597 4.192-3.804 7.202 3.441 2.035 7.97 5.546 13.697 6.495z" fill="url(#E)"/><path d="m151.553 318.098s-.267 5.167 6.512 4.416c3.683-.405 9.635-3.847 9.635-3.847s-15.509-.034-16.147-.569z" fill="url(#F)"/><path d="m154.21 319.487h.078l32.241-.035c.794 0 1.441-.638 1.441-1.432 0-.784-.647-1.44-1.441-1.423l-32.241.035c-.794 0-1.441.638-1.441 1.432-.008.759.595 1.38 1.363 1.423z" fill="url(#G)"/><path d="m215.502 290.523h-26.851c-1.984 0-3.787 1.13-4.632 2.907l-12.403 26.04h33.363c1.276 0 2.423-.768 2.889-1.95l9.626-24.099c.561-1.389-.483-2.898-1.992-2.898z" fill="url(#H)"/><path d="m196.586 303.875c-.578 1.785-.155 3.528.958 3.881 1.112.354 2.484-.81 3.07-2.596.578-1.785.156-3.528-.957-3.881-1.113-.354-2.493.81-3.071 2.596z" fill="#7d97f4"/></svg>