<svg width="21" height="20" viewBox="0 0 21 20" fill="none" xmlns="http://www.w3.org/2000/svg">
<path d="M11.3833 3.88168H3.63557C1.93265 3.88168 0.538452 5.27588 0.538452 6.97879V18.2917C0.538452 19.7357 1.57414 20.3532 2.83888 19.6461L6.75261 17.4652C7.17087 17.2361 7.84805 17.2361 8.25635 17.4652L12.1701 19.6461C13.4448 20.3432 14.4805 19.7357 14.4805 18.2917V6.97879C14.4805 5.27588 13.0863 3.88168 11.3833 3.88168Z" fill="white"/>
<path d="M20.4556 3.11487V14.4278C20.4556 15.8718 19.4199 16.4793 18.1552 15.7822L16.2332 14.7067C16.0739 14.617 15.9743 14.4477 15.9743 14.2685V6.9788C15.9743 4.44932 13.9128 2.38789 11.3834 2.38789H7.33023C6.96176 2.38789 6.70284 1.99951 6.87213 1.68083C7.38998 0.694933 8.42567 0.0177498 9.61074 0.0177498H17.3585C19.0614 0.0177498 20.4556 1.41195 20.4556 3.11487Z" fill="white"/>
</svg>
