<svg fill="none" height="278" viewBox="0 0 350 278" width="350" xmlns="http://www.w3.org/2000/svg" xmlns:xlink="http://www.w3.org/1999/xlink"><filter id="a" color-interpolation-filters="sRGB" filterUnits="userSpaceOnUse" height="276.48" width="349.623" x=".188572" y=".891429"><feFlood flood-opacity="0" result="BackgroundImageFix"/><feColorMatrix in="SourceAlpha" result="hardAlpha" type="matrix" values="0 0 0 0 0 0 0 0 0 0 0 0 0 0 0 0 0 0 127 0"/><feOffset dy="11.7029"/><feGaussianBlur stdDeviation="23.4057"/><feComposite in2="hardAlpha" operator="out"/><feColorMatrix type="matrix" values="0 0 0 0 0.478431 0 0 0 0 0.796078 0 0 0 0 0.878431 0 0 0 0.62 0"/><feBlend in2="BackgroundImageFix" mode="normal" result="effect1_dropShadow_2_2603"/><feBlend in="SourceGraphic" in2="effect1_dropShadow_2_2603" mode="normal" result="shape"/></filter><linearGradient id="b" gradientUnits="userSpaceOnUse" x1="47" x2="213.916" y1="112.8" y2="122.017"><stop offset="0" stop-color="#aee9f7"/><stop offset="1" stop-color="#6fc4db"/></linearGradient><g filter="url(#a)"><rect fill="url(#b)" height="182.857" rx="14.6286" width="256" x="47" y="36"/></g><g fill="#fff"><path d="m184.258 88.5558c0 3.2522-2.649 5.9011-5.901 5.9011h-9.18c-1.626 0-3.094-.6557-4.17-1.731-1.075-1.0753-1.731-2.544-1.731-4.1701 0-3.2521 2.649-5.901 5.901-5.901h9.18c1.626 0 3.095.6557 4.17 1.731s1.731 2.544 1.731 4.17z"/><path d="m191.68 90.6015c-.603-.4983-1.285-.8917-2.019-1.1802-.761-.2885-1.522.3147-1.679 1.1015-.892 4.4848-4.852 7.8681-9.625 7.8681h-9.18c-2.622 0-5.088-1.0229-6.95-2.885-1.363-1.3638-2.308-3.0948-2.675-4.9569-.157-.7868-.944-1.4162-1.705-1.1015-3.042 1.2327-5.061 4.0127-5.061 9.599v25.5715c0 7.868 4.694 10.49 10.49 10.49h20.982c5.796 0 10.491-2.622 10.491-10.49v-25.5715c0-4.275-1.181-6.8976-3.069-8.445zm-28.404 18.9355h10.491c1.075 0 1.967.892 1.967 1.967 0 1.076-.892 1.967-1.967 1.967h-10.491c-1.075 0-1.967-.891-1.967-1.967 0-1.075.892-1.967 1.967-1.967zm20.982 14.425h-20.982c-1.075 0-1.967-.892-1.967-1.967s.892-1.967 1.967-1.967h20.982c1.075 0 1.967.892 1.967 1.967s-.892 1.967-1.967 1.967z"/><path d="m125.093 151.059v2.176h-4.33v14.091h-2.668v-14.091h-4.354v-2.176zm4.06 1.662c-.484 0-.889-.164-1.217-.492s-.492-.733-.492-1.217.164-.889.492-1.217.733-.492 1.217-.492c.468 0 .866.164 1.194.492.327.328.491.733.491 1.217s-.164.889-.491 1.217c-.328.328-.726.492-1.194.492zm1.311 1.708v12.897h-2.669v-12.897zm19.115-.21c1.014 0 1.919.21 2.715.631.811.422 1.443 1.046 1.895 1.873.469.827.703 1.826.703 2.996v7.607h-2.645v-7.209c0-1.155-.289-2.037-.866-2.645-.578-.624-1.366-.936-2.364-.936-.999 0-1.795.312-2.388.936-.577.608-.866 1.49-.866 2.645v7.209h-2.644v-7.209c0-1.155-.289-2.037-.866-2.645-.578-.624-1.366-.936-2.364-.936-.999 0-1.795.312-2.388.936-.577.608-.866 1.49-.866 2.645v7.209h-2.668v-12.897h2.668v1.475c.437-.531.991-.944 1.662-1.241.671-.296 1.389-.444 2.153-.444 1.03 0 1.951.218 2.762.655.812.437 1.436 1.069 1.873 1.896.39-.78.998-1.397 1.825-1.849.827-.468 1.717-.702 2.669-.702zm20.528 6.342c0 .484-.031.921-.094 1.311h-9.854c.078 1.03.461 1.857 1.147 2.481.687.624 1.529.936 2.528.936 1.436 0 2.45-.6 3.043-1.802h2.879c-.39 1.186-1.1 2.161-2.13 2.926-1.014.749-2.278 1.123-3.792 1.123-1.233 0-2.341-.273-3.324-.819-.967-.562-1.732-1.342-2.293-2.34-.546-1.015-.82-2.185-.82-3.511 0-1.327.266-2.489.796-3.488.546-1.014 1.303-1.794 2.271-2.34.983-.546 2.106-.819 3.37-.819 1.217 0 2.302.265 3.253.795.952.531 1.693 1.28 2.224 2.247.531.952.796 2.052.796 3.3zm-2.785-.842c-.016-.983-.367-1.771-1.054-2.364-.686-.593-1.537-.89-2.551-.89-.921 0-1.709.297-2.364.89-.655.577-1.045 1.365-1.17 2.364zm10.092 7.817c-1.014 0-1.927-.179-2.739-.538-.796-.374-1.427-.874-1.896-1.498-.468-.64-.717-1.35-.749-2.13h2.762c.047.546.305 1.007.773 1.381.483.359 1.084.538 1.802.538.749 0 1.326-.14 1.732-.421.421-.296.632-.671.632-1.123 0-.484-.234-.843-.702-1.077-.453-.234-1.178-.492-2.177-.772-.967-.266-1.755-.523-2.364-.773-.609-.249-1.139-.632-1.592-1.147-.436-.515-.655-1.193-.655-2.036 0-.687.203-1.311.609-1.872.405-.578.983-1.03 1.732-1.358.764-.328 1.638-.491 2.621-.491 1.467 0 2.645.374 3.534 1.123.905.733 1.389 1.74 1.452 3.019h-2.669c-.047-.577-.281-1.037-.702-1.381-.421-.343-.991-.515-1.709-.515-.702 0-1.24.133-1.615.398-.374.266-.561.617-.561 1.054 0 .343.125.632.374.866.25.234.554.421.913.561.359.125.889.289 1.592.492.936.25 1.7.507 2.293.772.609.25 1.132.624 1.569 1.124.437.499.663 1.162.678 1.989 0 .734-.202 1.389-.608 1.966-.406.578-.983 1.03-1.732 1.358-.734.328-1.6.491-2.598.491zm14.492-13.317c.983 0 1.857.21 2.622.631.78.422 1.388 1.046 1.825 1.873.453.827.679 1.826.679 2.996v7.607h-2.645v-7.209c0-1.155-.289-2.037-.866-2.645-.577-.624-1.365-.936-2.364-.936s-1.794.312-2.387.936c-.578.608-.866 1.49-.866 2.645v7.209h-2.669v-17.321h2.669v5.922c.452-.546 1.022-.967 1.708-1.264.703-.296 1.467-.444 2.294-.444zm20.349 6.342c0 .484-.031.921-.093 1.311h-9.854c.078 1.03.46 1.857 1.147 2.481.686.624 1.529.936 2.528.936 1.435 0 2.449-.6 3.042-1.802h2.879c-.39 1.186-1.1 2.161-2.13 2.926-1.014.749-2.278 1.123-3.791 1.123-1.233 0-2.341-.273-3.324-.819-.967-.562-1.732-1.342-2.294-2.34-.546-1.015-.819-2.185-.819-3.511 0-1.327.265-2.489.796-3.488.546-1.014 1.303-1.794 2.27-2.34.983-.546 2.107-.819 3.371-.819 1.217 0 2.301.265 3.253.795.952.531 1.693 1.28 2.224 2.247.53.952.795 2.052.795 3.3zm-2.785-.842c-.016-.983-.367-1.771-1.053-2.364-.687-.593-1.537-.89-2.551-.89-.921 0-1.709.297-2.364.89-.656.577-1.046 1.365-1.171 2.364zm17.231.842c0 .484-.031.921-.094 1.311h-9.853c.078 1.03.46 1.857 1.147 2.481.686.624 1.529.936 2.527.936 1.436 0 2.45-.6 3.043-1.802h2.879c-.39 1.186-1.1 2.161-2.13 2.926-1.014.749-2.278 1.123-3.792 1.123-1.232 0-2.34-.273-3.323-.819-.968-.562-1.732-1.342-2.294-2.34-.546-1.015-.819-2.185-.819-3.511 0-1.327.265-2.489.796-3.488.546-1.014 1.302-1.794 2.27-2.34.983-.546 2.106-.819 3.37-.819 1.217 0 2.302.265 3.254.795.952.531 1.693 1.28 2.223 2.247.531.952.796 2.052.796 3.3zm-2.785-.842c-.016-.983-.367-1.771-1.053-2.364-.687-.593-1.537-.89-2.552-.89-.92 0-1.708.297-2.364.89-.655.577-1.045 1.365-1.17 2.364zm8.524-3.113v7.139c0 .483.109.834.328 1.053.234.203.624.304 1.17.304h1.638v2.224h-2.106c-1.202 0-2.122-.281-2.762-.843s-.96-1.474-.96-2.738v-7.139h-1.521v-2.177h1.521v-3.206h2.692v3.206h3.136v2.177z"/></g></svg>