<svg width="10" height="12" viewBox="0 0 10 12" fill="none" xmlns="http://www.w3.org/2000/svg">
<path d="M9.61862 2.81066C9.60837 2.81066 9.59298 2.81066 9.57759 2.81066C6.86438 2.53882 4.15629 2.43624 1.47384 2.70808L0.427538 2.81066C0.212122 2.83117 0.0223508 2.67731 0.00183498 2.46189C-0.0186808 2.24647 0.135188 2.06183 0.345475 2.04131L1.39178 1.93874C4.12038 1.66177 6.88489 1.76948 9.65453 2.04131C9.86481 2.06183 10.0187 2.2516 9.99817 2.46189C9.98278 2.66192 9.81352 2.81066 9.61862 2.81066Z" fill="white"/>
<path d="M3.20744 2.29264C3.18692 2.29264 3.16641 2.29264 3.14076 2.28751C2.93561 2.25161 2.79199 2.05158 2.8279 1.84642L2.94073 1.17453C3.0228 0.682151 3.13563 0 4.33068 0H5.67447C6.87464 0 6.98748 0.707796 7.06441 1.17966L7.17725 1.84642C7.21315 2.05671 7.06954 2.25674 6.86438 2.28751C6.6541 2.32342 6.45407 2.17981 6.42329 1.97465L6.31046 1.30788C6.23865 0.861664 6.22326 0.774472 5.6796 0.774472H4.33581C3.79214 0.774472 3.78188 0.846277 3.70495 1.30275L3.58698 1.96952C3.55621 2.15929 3.39208 2.29264 3.20744 2.29264Z" fill="white"/>
<path d="M6.64891 11.0273H3.35613C1.56612 11.0273 1.49432 10.0374 1.4379 9.23726L1.10452 4.07241C1.08913 3.86212 1.25326 3.67748 1.46354 3.66209C1.67896 3.65183 1.85847 3.81083 1.87386 4.02112L2.20724 9.18597C2.26366 9.96557 2.28417 10.2579 3.35613 10.2579H6.64891C7.726 10.2579 7.74651 9.96557 7.7978 9.18597L8.13118 4.02112C8.14657 3.81083 8.33121 3.65183 8.5415 3.66209C8.75179 3.67748 8.91591 3.85699 8.90053 4.07241L8.56714 9.23726C8.51073 10.0374 8.43892 11.0273 6.64891 11.0273Z" fill="white"/>
<path d="M5.85397 8.20635H4.14602C3.93574 8.20635 3.76135 8.03197 3.76135 7.82168C3.76135 7.6114 3.93574 7.43701 4.14602 7.43701H5.85397C6.06425 7.43701 6.23864 7.6114 6.23864 7.82168C6.23864 8.03197 6.06425 8.20635 5.85397 8.20635Z" fill="white"/>
<path d="M6.28484 6.15484H3.72036C3.51008 6.15484 3.33569 5.98046 3.33569 5.77017C3.33569 5.55988 3.51008 5.3855 3.72036 5.3855H6.28484C6.49513 5.3855 6.66951 5.55988 6.66951 5.77017C6.66951 5.98046 6.49513 6.15484 6.28484 6.15484Z" fill="white"/>
</svg>
